<svg xmlns="http://www.w3.org/2000/svg" width="121" height="11" fill="none" viewBox="0 -8 121 11"><path fill="#ffffff" d="M0.66 -6.65L0.66 0L1.84 0L5.31 -5.18L5.55 -5.18L5.55 0L6.53 0L6.53 -6.65L5.37 -6.65L1.9 -1.48L1.65 -1.48L1.65 -6.65ZM14.55 0L14.55 1.29L15.43 1.29L15.43 -0.75L14.66 -0.75L14.66 -4.96L13.72 -4.96L13.72 -0.75L11.7 -0.75L11.7 -4.96L10.76 -4.96L10.76 -0.75L8.72 -0.75L8.72 -4.96L7.78 -4.96L7.78 0ZM20.22 -3.63L20.22 0L21.16 0L21.16 -4.96L20.02 -4.96L17.51 -1.34L17.25 -1.34L17.25 -4.96L16.31 -4.96L16.31 0L17.46 0L19.95 -3.63ZM24.01 -4.21L24.01 0L24.96 0L24.96 -4.21L26.97 -4.21L26.97 -4.96L22 -4.96L22 -4.21ZM31.66 -1.59Q31.55 -1.16 31.17 -0.9Q30.79 -0.65 30.1 -0.65L29.94 -0.65Q29.46 -0.65 29.1 -0.83Q28.75 -1.02 28.55 -1.35Q28.35 -1.69 28.35 -2.21L28.35 -2.22L32.61 -2.22L32.61 -2.7Q32.61 -3.5 32.27 -4.02Q31.93 -4.54 31.36 -4.8Q30.78 -5.06 30.1 -5.06L29.94 -5.06Q29.22 -5.06 28.66 -4.8Q28.09 -4.54 27.75 -4.02Q27.42 -3.5 27.42 -2.7L27.42 -2.26Q27.42 -1.47 27.75 -0.94Q28.09 -0.42 28.66 -0.16Q29.22 0.09 29.94 0.09L30.1 0.09Q30.8 0.09 31.33 -0.11Q31.85 -0.32 32.16 -0.69Q32.47 -1.07 32.55 -1.59ZM30.09 -4.32Q30.52 -4.32 30.88 -4.16Q31.24 -4 31.45 -3.69Q31.65 -3.37 31.68 -2.94L31.68 -2.94L28.36 -2.94L28.36 -2.94Q28.38 -3.38 28.58 -3.69Q28.78 -4 29.12 -4.16Q29.46 -4.32 29.93 -4.32ZM35.92 -4.96L35.92 2.38L36.87 2.38L36.87 -0.69L37.07 -0.69Q37.27 -0.41 37.54 -0.24Q37.82 -0.08 38.14 0Q38.45 0.08 38.79 0.08L38.94 0.08Q39.44 0.08 39.84 -0.06Q40.24 -0.21 40.55 -0.5Q40.85 -0.79 41.01 -1.23Q41.17 -1.67 41.17 -2.26L41.17 -2.71Q41.17 -3.28 41.01 -3.73Q40.85 -4.18 40.55 -4.47Q40.24 -4.76 39.84 -4.91Q39.44 -5.06 38.94 -5.06L38.79 -5.06Q38.45 -5.06 38.14 -4.97Q37.82 -4.88 37.55 -4.72Q37.29 -4.57 37.07 -4.28L36.87 -4.28L36.87 -4.96ZM40.23 -2.25Q40.23 -1.76 40.04 -1.4Q39.84 -1.05 39.48 -0.86Q39.12 -0.67 38.63 -0.67L38.47 -0.67Q37.99 -0.67 37.62 -0.86Q37.25 -1.04 37.06 -1.39Q36.87 -1.75 36.87 -2.25L36.87 -2.71Q36.87 -3.22 37.07 -3.57Q37.27 -3.93 37.63 -4.11Q37.99 -4.29 38.47 -4.29L38.63 -4.29Q39.12 -4.29 39.48 -4.11Q39.84 -3.93 40.04 -3.57Q40.23 -3.21 40.23 -2.71ZM45.86 -0.64L45.86 0L46.82 0L46.82 -3.27Q46.82 -3.84 46.56 -4.23Q46.3 -4.62 45.81 -4.84Q45.31 -5.06 44.58 -5.06L44.42 -5.06Q43.68 -5.06 43.19 -4.85Q42.69 -4.63 42.43 -4.24Q42.17 -3.84 42.17 -3.28L42.17 -3.28L43.13 -3.28L43.13 -3.28Q43.13 -3.65 43.31 -3.88Q43.48 -4.11 43.78 -4.22Q44.07 -4.33 44.42 -4.33L44.57 -4.33Q44.95 -4.33 45.25 -4.21Q45.54 -4.1 45.7 -3.87Q45.86 -3.64 45.86 -3.27L45.86 -2.86L44.04 -2.86Q43.35 -2.86 42.89 -2.69Q42.43 -2.52 42.21 -2.2Q42 -1.89 42 -1.42Q42 -0.89 42.23 -0.56Q42.47 -0.22 42.88 -0.06Q43.3 0.09 43.81 0.09Q44.21 0.09 44.54 0.02Q44.86 -0.05 45.14 -0.21Q45.42 -0.37 45.65 -0.64ZM45.86 -2Q45.86 -1.7 45.76 -1.48Q45.66 -1.26 45.48 -1.11Q45.31 -0.95 45.08 -0.86Q44.85 -0.76 44.6 -0.71Q44.35 -0.66 44.11 -0.66Q43.55 -0.66 43.25 -0.86Q42.95 -1.06 42.95 -1.47Q42.95 -1.85 43.23 -2.04Q43.5 -2.23 44.1 -2.23L45.86 -2.23ZM47.9 -2.24Q47.9 -1.45 48.22 -0.93Q48.54 -0.42 49.12 -0.16Q49.69 0.09 50.45 0.09L50.61 0.09Q51.34 0.09 51.92 -0.16Q52.5 -0.42 52.82 -0.93Q53.15 -1.45 53.15 -2.24L53.15 -2.61Q53.15 -3.37 52.87 -3.89Q52.6 -4.4 52.1 -4.65Q51.6 -4.91 50.94 -4.91L50.8 -4.91Q50.26 -4.91 49.8 -4.73Q49.35 -4.56 49.06 -4.15L48.7 -4.15L48.83 -3.94L48.83 -4.44Q48.83 -4.86 48.93 -5.18Q49.03 -5.5 49.31 -5.7Q49.58 -5.91 50.09 -5.99L51.64 -6.25Q52.09 -6.33 52.36 -6.48Q52.63 -6.63 52.76 -6.86Q52.88 -7.1 52.88 -7.44L51.96 -7.44Q51.96 -7.25 51.79 -7.16Q51.63 -7.06 51.18 -6.97L49.81 -6.75Q49.06 -6.62 48.65 -6.29Q48.24 -5.95 48.07 -5.44Q47.9 -4.92 47.9 -4.26ZM52.2 -2.22Q52.2 -1.73 52.03 -1.38Q51.85 -1.03 51.48 -0.85Q51.12 -0.67 50.61 -0.67L50.45 -0.67Q49.94 -0.67 49.58 -0.85Q49.23 -1.03 49.03 -1.38Q48.84 -1.73 48.84 -2.22L48.84 -2.61Q48.84 -3.35 49.26 -3.75Q49.67 -4.14 50.45 -4.14L50.61 -4.14Q51.12 -4.14 51.48 -3.95Q51.84 -3.77 52.02 -3.43Q52.2 -3.1 52.2 -2.61ZM56.66 0.09L56.82 0.09Q57.55 0.09 58.13 -0.17Q58.71 -0.43 59.04 -0.95Q59.37 -1.47 59.37 -2.26L59.37 -2.7Q59.37 -3.48 59.04 -4.01Q58.71 -4.54 58.13 -4.8Q57.55 -5.06 56.82 -5.06L56.66 -5.06Q56.12 -5.06 55.65 -4.91Q55.18 -4.76 54.84 -4.47Q54.5 -4.18 54.3 -3.74Q54.11 -3.3 54.11 -2.7L54.11 -2.26Q54.11 -1.67 54.3 -1.23Q54.5 -0.78 54.84 -0.49Q55.18 -0.2 55.65 -0.05Q56.12 0.09 56.66 0.09ZM58.42 -2.25Q58.42 -1.76 58.23 -1.41Q58.05 -1.06 57.69 -0.87Q57.33 -0.67 56.82 -0.67L56.66 -0.67Q56.16 -0.67 55.8 -0.87Q55.44 -1.06 55.25 -1.41Q55.05 -1.76 55.05 -2.25L55.05 -2.72Q55.05 -3.21 55.25 -3.55Q55.45 -3.9 55.81 -4.09Q56.16 -4.29 56.66 -4.29L56.82 -4.29Q57.33 -4.29 57.68 -4.09Q58.04 -3.9 58.23 -3.55Q58.42 -3.21 58.42 -2.72ZM61.82 -4.21L61.82 0L62.76 0L62.76 -4.21L64.78 -4.21L64.78 -4.96L59.81 -4.96L59.81 -4.21ZM67.61 0.21L66.65 2.38L67.56 2.38L70.73 -4.96L69.84 -4.96L68.26 -1.35L67.94 -1.35L66.28 -4.96L65.27 -4.96ZM73.69 -4.96L73.69 0L74.64 0L74.64 -2.14L77.54 -2.14L77.54 0L78.51 0L78.51 -4.96L77.54 -4.96L77.54 -2.89L74.64 -2.89L74.64 -4.96ZM83.43 -0.64L83.43 0L84.39 0L84.39 -3.27Q84.39 -3.84 84.14 -4.23Q83.88 -4.62 83.38 -4.84Q82.89 -5.06 82.15 -5.06L81.99 -5.06Q81.26 -5.06 80.76 -4.85Q80.27 -4.63 80.01 -4.24Q79.75 -3.84 79.75 -3.28L79.75 -3.28L80.7 -3.28L80.7 -3.28Q80.7 -3.65 80.88 -3.88Q81.06 -4.11 81.35 -4.22Q81.64 -4.33 81.99 -4.33L82.14 -4.33Q82.53 -4.33 82.82 -4.21Q83.11 -4.1 83.27 -3.87Q83.43 -3.64 83.43 -3.27L83.43 -2.86L81.61 -2.86Q80.92 -2.86 80.46 -2.69Q80.01 -2.52 79.79 -2.2Q79.57 -1.89 79.57 -1.42Q79.57 -0.89 79.81 -0.56Q80.05 -0.22 80.46 -0.06Q80.87 0.09 81.39 0.09Q81.78 0.09 82.11 0.02Q82.44 -0.05 82.72 -0.21Q82.99 -0.37 83.22 -0.64ZM83.43 -2Q83.43 -1.7 83.33 -1.48Q83.23 -1.26 83.06 -1.11Q82.89 -0.95 82.66 -0.86Q82.43 -0.76 82.18 -0.71Q81.92 -0.66 81.68 -0.66Q81.13 -0.66 80.83 -0.86Q80.52 -1.06 80.52 -1.47Q80.52 -1.85 80.8 -2.04Q81.08 -2.23 81.67 -2.23L83.43 -2.23ZM90.16 -2.69L90.16 0L91.16 0L91.16 -2.69L93.93 -6.65L92.93 -6.65L90.83 -3.62L90.56 -3.62L88.34 -6.65L87.27 -6.65ZM96.08 0.09L96.24 0.09Q96.98 0.09 97.55 -0.17Q98.13 -0.43 98.46 -0.95Q98.79 -1.47 98.79 -2.26L98.79 -2.7Q98.79 -3.48 98.46 -4.01Q98.13 -4.54 97.55 -4.8Q96.98 -5.06 96.24 -5.06L96.08 -5.06Q95.54 -5.06 95.07 -4.91Q94.6 -4.76 94.26 -4.47Q93.92 -4.18 93.72 -3.74Q93.53 -3.3 93.53 -2.7L93.53 -2.26Q93.53 -1.67 93.72 -1.23Q93.92 -0.78 94.26 -0.49Q94.6 -0.2 95.07 -0.05Q95.54 0.09 96.08 0.09ZM97.84 -2.25Q97.84 -1.76 97.65 -1.41Q97.47 -1.06 97.11 -0.87Q96.75 -0.67 96.24 -0.67L96.08 -0.67Q95.59 -0.67 95.22 -0.87Q94.86 -1.06 94.67 -1.41Q94.47 -1.76 94.47 -2.25L94.47 -2.72Q94.47 -3.21 94.67 -3.55Q94.87 -3.9 95.23 -4.09Q95.59 -4.29 96.08 -4.29L96.24 -4.29Q96.75 -4.29 97.1 -4.09Q97.46 -3.9 97.65 -3.55Q97.84 -3.21 97.84 -2.72ZM99.88 -4.96L99.88 0L100.82 0L100.82 -3.09Q100.82 -3.62 101.1 -3.94Q101.39 -4.25 101.99 -4.25Q102.58 -4.25 102.85 -3.94Q103.13 -3.62 103.13 -3.09L103.13 -2.96L104.01 -2.96L104.01 -3.19Q104.01 -3.84 103.82 -4.25Q103.63 -4.66 103.27 -4.86Q102.91 -5.06 102.42 -5.06Q101.91 -5.06 101.58 -4.87Q101.26 -4.68 101.04 -4.39L100.79 -4.39L100.82 -4.31L100.82 -4.96ZM108.44 -0.64L108.44 0L109.41 0L109.41 -3.27Q109.41 -3.84 109.15 -4.23Q108.89 -4.62 108.39 -4.84Q107.9 -5.06 107.16 -5.06L107 -5.06Q106.27 -5.06 105.77 -4.85Q105.28 -4.63 105.02 -4.24Q104.76 -3.84 104.76 -3.28L104.76 -3.28L105.71 -3.28L105.71 -3.28Q105.71 -3.65 105.89 -3.88Q106.07 -4.11 106.36 -4.22Q106.66 -4.33 107 -4.33L107.15 -4.33Q107.54 -4.33 107.83 -4.21Q108.13 -4.1 108.28 -3.87Q108.44 -3.64 108.44 -3.27L108.44 -2.86L106.63 -2.86Q105.93 -2.86 105.48 -2.69Q105.02 -2.52 104.8 -2.2Q104.58 -1.89 104.58 -1.42Q104.58 -0.89 104.82 -0.56Q105.06 -0.22 105.47 -0.06Q105.88 0.09 106.4 0.09Q106.8 0.09 107.12 0.02Q107.45 -0.05 107.73 -0.21Q108.01 -0.37 108.23 -0.64ZM108.44 -2Q108.44 -1.7 108.34 -1.48Q108.24 -1.26 108.07 -1.11Q107.9 -0.95 107.67 -0.86Q107.44 -0.76 107.19 -0.71Q106.93 -0.66 106.7 -0.66Q106.14 -0.66 105.84 -0.86Q105.54 -1.06 105.54 -1.47Q105.54 -1.85 105.81 -2.04Q106.09 -2.23 106.69 -2.23L108.44 -2.23ZM111.69 -0.49L111.69 -0.52Q111.69 -0.75 111.52 -0.92Q111.35 -1.08 111.1 -1.08L111.08 -1.08Q110.83 -1.08 110.66 -0.92Q110.48 -0.75 110.48 -0.51L110.48 -0.49Q110.48 -0.23 110.66 -0.07Q110.83 0.09 111.08 0.09L111.1 0.09Q111.35 0.09 111.52 -0.07Q111.69 -0.24 111.69 -0.49ZM112.79 -1.6Q112.79 -1.01 113.03 -0.64Q113.27 -0.27 113.68 -0.09Q114.09 0.08 114.62 0.08L114.77 0.08Q115.29 0.08 115.68 -0.09Q116.07 -0.27 116.29 -0.64Q116.51 -1.01 116.51 -1.6L116.51 -2.05L115.64 -2.05L115.64 -1.6Q115.64 -1.3 115.54 -1.09Q115.44 -0.87 115.24 -0.77Q115.04 -0.67 114.77 -0.67L114.61 -0.67Q114.32 -0.67 114.13 -0.78Q113.94 -0.88 113.83 -1.09Q113.73 -1.3 113.73 -1.6L113.73 -4.22L116.22 -4.22L116.22 -4.96L113.73 -4.96L113.73 -6.44L112.79 -6.44L112.79 -4.96L112 -4.96L112 -4.22L112.79 -4.22ZM117.46 0.53Q117.46 0.88 117.36 1.11Q117.26 1.33 117.06 1.43Q116.87 1.54 116.59 1.54L116.29 1.54L116.29 2.38L116.64 2.38Q117.11 2.38 117.44 2.26Q117.76 2.14 117.97 1.91Q118.18 1.67 118.29 1.32Q118.4 0.98 118.4 0.56L118.4 -4.96L117.46 -4.96ZM118.5 -6.5L118.5 -6.51Q118.5 -6.73 118.34 -6.87Q118.19 -7.02 117.97 -7.02L117.91 -7.02Q117.68 -7.02 117.53 -6.87Q117.38 -6.73 117.38 -6.51L117.38 -6.5Q117.38 -6.26 117.53 -6.13Q117.68 -5.99 117.91 -5.99L117.97 -5.99Q118.19 -5.99 118.34 -6.13Q118.5 -6.26 118.5 -6.5ZM119.53 -6.65L119.89 -1.74L120.55 -1.74L120.88 -6.65ZM120.81 -0.49L120.81 -0.52Q120.81 -0.75 120.64 -0.92Q120.47 -1.08 120.22 -1.08L120.2 -1.08Q119.96 -1.08 119.79 -0.92Q119.61 -0.75 119.61 -0.51L119.61 -0.49Q119.61 -0.23 119.79 -0.07Q119.96 0.09 120.2 0.09L120.22 0.09Q120.47 0.09 120.64 -0.07Q120.81 -0.24 120.81 -0.49Z"/></svg>