<svg xmlns="http://www.w3.org/2000/svg" width="218" height="45" fill="none" viewBox="1 -15 218 45"><path fill="#fff" d="M1.28 -13.17L1.28 0L5.4 0L5.4 -5.07L13.5 -5.07L13.5 0L17.63 0L17.63 -13.17L13.5 -13.17L13.5 -8.41L5.4 -8.41L5.4 -13.17ZM30.06 -1.49L30.06 0L34.09 0L34.09 -6.6Q34.09 -7.76 33.41 -8.62Q32.74 -9.47 31.25 -9.94Q29.77 -10.41 27.37 -10.41L26.78 -10.41Q24.41 -10.41 22.9 -9.96Q21.4 -9.51 20.69 -8.69Q19.98 -7.86 19.98 -6.74L19.98 -6.72L24.01 -6.72L24.01 -6.74Q24.01 -7.11 24.3 -7.36Q24.58 -7.6 25.19 -7.74Q25.8 -7.88 26.76 -7.88L27.31 -7.88Q28.3 -7.88 28.9 -7.73Q29.49 -7.58 29.78 -7.3Q30.06 -7.01 30.06 -6.6L30.06 -6.33L25.11 -6.33Q23.3 -6.33 22.13 -5.96Q20.95 -5.6 20.37 -4.85Q19.79 -4.11 19.79 -2.97Q19.79 -1.93 20.37 -1.23Q20.95 -0.53 22 -0.17Q23.05 0.2 24.46 0.2Q25.78 0.2 26.71 0Q27.65 -0.2 28.31 -0.57Q28.96 -0.94 29.46 -1.49ZM30.06 -4.03Q30.06 -3.69 29.85 -3.45Q29.63 -3.2 29.26 -3.02Q28.89 -2.83 28.41 -2.72Q27.94 -2.61 27.41 -2.55Q26.88 -2.5 26.37 -2.5Q24.92 -2.5 24.41 -2.74Q23.91 -2.99 23.91 -3.36Q23.91 -3.81 24.36 -3.99Q24.8 -4.17 25.86 -4.17L30.06 -4.17ZM47.14 -6.78L47.14 0L51.17 0L51.17 -10.22L45.37 -10.22L40.85 -3.44L40.18 -3.44L40.18 -10.22L36.16 -10.22L36.16 0L41.95 0L46.47 -6.78ZM45.17 -14.54Q45.17 -14.05 45.01 -13.77Q44.84 -13.5 44.55 -13.39Q44.25 -13.28 43.86 -13.28Q43.47 -13.28 43.17 -13.39Q42.88 -13.5 42.71 -13.77Q42.54 -14.05 42.54 -14.54L39.73 -14.54L39.73 -14.44Q39.73 -12.87 40.76 -12.11Q41.8 -11.36 43.86 -11.36Q45.94 -11.36 46.96 -12.11Q47.98 -12.87 47.98 -14.46L47.98 -14.54ZM52.64 -2.95L52.64 2.55L56.38 2.55L56.38 0L67.05 0L67.05 2.55L70.78 2.55L70.78 -2.95L68.81 -2.95L68.81 -10.22L55.33 -10.22Q55.33 -8.76 55.3 -7.69Q55.27 -6.62 55.21 -5.8Q55.14 -4.97 55 -4.28Q54.86 -3.6 54.65 -2.95ZM64.79 -7.27L64.79 -2.95L58.34 -2.95Q58.48 -3.42 58.58 -3.87Q58.67 -4.32 58.74 -4.82Q58.81 -5.33 58.87 -5.92Q58.93 -6.52 58.95 -7.27ZM83.24 -6.78L83.24 0L87.26 0L87.26 -10.22L81.47 -10.22L76.95 -3.44L76.28 -3.44L76.28 -10.22L72.25 -10.22L72.25 0L78.05 0L82.57 -6.78ZM93.36 -7.27L93.36 0L97.38 0L97.38 -7.27L102 -7.27L102 -10.22L88.74 -10.22L88.74 -7.27ZM113.99 -3.38Q113.62 -2.83 112.77 -2.65Q111.93 -2.48 110.67 -2.48L110.08 -2.48Q108.96 -2.48 108.24 -2.7Q107.52 -2.93 107.14 -3.33Q106.76 -3.73 106.68 -4.26L106.68 -4.26L117.84 -4.26L117.84 -5.11Q117.84 -6.92 116.89 -8.1Q115.93 -9.27 114.31 -9.84Q112.69 -10.41 110.67 -10.41L110.08 -10.41Q108.05 -10.41 106.42 -9.84Q104.79 -9.27 103.84 -8.1Q102.89 -6.92 102.89 -5.11L102.89 -4.91Q102.89 -3.14 103.85 -2.01Q104.81 -0.88 106.43 -0.34Q108.05 0.2 110.08 0.2L110.67 0.2Q112.97 0.2 114.43 -0.3Q115.89 -0.81 116.68 -1.63Q117.47 -2.46 117.68 -3.38ZM110.69 -7.74Q111.55 -7.74 112.2 -7.59Q112.85 -7.45 113.28 -7.17Q113.71 -6.9 113.93 -6.52L113.93 -6.52L106.84 -6.52L106.84 -6.52Q107.03 -6.92 107.45 -7.18Q107.86 -7.45 108.51 -7.59Q109.15 -7.74 110.08 -7.74ZM124.72 -4.91Q124.72 -3.14 125.63 -2.01Q126.54 -0.88 128.18 -0.34Q129.81 0.2 131.99 0.2L132.58 0.2Q134.07 0.2 135.39 -0.09Q136.7 -0.37 137.7 -0.93Q138.69 -1.49 139.26 -2.34Q139.83 -3.18 139.83 -4.32L139.83 -4.32L135.8 -4.32L135.8 -4.32Q135.8 -3.81 135.38 -3.48Q134.95 -3.14 134.23 -2.99Q133.5 -2.83 132.58 -2.83L131.99 -2.83Q130.95 -2.83 130.22 -3.08Q129.49 -3.32 129.12 -3.78Q128.75 -4.24 128.75 -4.91L128.75 -5.11Q128.75 -5.82 129.12 -6.33Q129.49 -6.84 130.22 -7.11Q130.95 -7.39 131.99 -7.39L132.58 -7.39Q133.5 -7.39 134.21 -7.21Q134.92 -7.03 135.31 -6.72Q135.7 -6.41 135.7 -5.99L135.7 -5.99L139.73 -5.99L139.73 -5.99Q139.73 -7.53 138.78 -8.5Q137.82 -9.47 136.19 -9.94Q134.56 -10.41 132.58 -10.41L131.99 -10.41Q129.81 -10.41 128.18 -9.82Q126.54 -9.24 125.63 -8.06Q124.72 -6.88 124.72 -5.11ZM141.79 0L152.21 0Q153.64 0 154.48 -0.37Q155.31 -0.75 155.68 -1.35Q156.04 -1.95 156.04 -2.63Q156.04 -3.75 155.37 -4.33Q154.7 -4.91 153.64 -5.15L153.64 -5.54Q154.66 -5.8 155.25 -6.32Q155.84 -6.84 155.84 -7.74Q155.84 -8.53 155.43 -9.08Q155.02 -9.63 154.11 -9.92Q153.21 -10.22 151.76 -10.22L141.79 -10.22ZM150.93 -6.37L145.72 -6.37L145.72 -7.74L150.93 -7.74Q151.32 -7.74 151.52 -7.55Q151.72 -7.35 151.72 -7.05Q151.72 -6.74 151.52 -6.55Q151.32 -6.37 150.93 -6.37ZM150.97 -2.48L145.72 -2.48L145.72 -4.01L150.97 -4.01Q151.48 -4.01 151.7 -3.78Q151.91 -3.56 151.91 -3.22Q151.91 -2.85 151.7 -2.66Q151.48 -2.48 150.97 -2.48ZM164.7 0.2L165.29 0.2Q167.51 0.2 169.18 -0.37Q170.84 -0.94 171.76 -2.09Q172.68 -3.24 172.68 -5.01L172.68 -5.21Q172.68 -6.94 171.76 -8.1Q170.84 -9.26 169.18 -9.83Q167.51 -10.41 165.29 -10.41L164.7 -10.41Q163.03 -10.41 161.67 -10.09Q160.3 -9.77 159.33 -9.11Q158.36 -8.45 157.84 -7.48Q157.32 -6.5 157.32 -5.21L157.32 -5.01Q157.32 -3.69 157.84 -2.71Q158.36 -1.73 159.33 -1.09Q160.3 -0.45 161.67 -0.13Q163.03 0.2 164.7 0.2ZM168.65 -5.01Q168.65 -4.4 168.35 -3.91Q168.05 -3.42 167.31 -3.12Q166.57 -2.83 165.29 -2.83L164.7 -2.83Q163.43 -2.83 162.69 -3.12Q161.95 -3.42 161.65 -3.91Q161.34 -4.4 161.34 -5.01L161.34 -5.21Q161.34 -5.82 161.65 -6.31Q161.95 -6.8 162.69 -7.09Q163.43 -7.39 164.7 -7.39L165.29 -7.39Q166.57 -7.39 167.31 -7.09Q168.05 -6.8 168.35 -6.31Q168.65 -5.82 168.65 -5.21ZM185.55 -3.38Q185.18 -2.83 184.33 -2.65Q183.49 -2.48 182.23 -2.48L181.64 -2.48Q180.52 -2.48 179.81 -2.7Q179.09 -2.93 178.71 -3.33Q178.32 -3.73 178.24 -4.26L178.24 -4.26L189.4 -4.26L189.4 -5.11Q189.4 -6.92 188.45 -8.1Q187.5 -9.27 185.88 -9.84Q184.26 -10.41 182.23 -10.41L181.64 -10.41Q179.62 -10.41 177.99 -9.84Q176.36 -9.27 175.4 -8.1Q174.45 -6.92 174.45 -5.11L174.45 -4.91Q174.45 -3.14 175.41 -2.01Q176.38 -0.88 178 -0.34Q179.62 0.2 181.64 0.2L182.23 0.2Q184.53 0.2 186 -0.3Q187.46 -0.81 188.25 -1.63Q189.03 -2.46 189.25 -3.38ZM182.25 -7.74Q183.12 -7.74 183.77 -7.59Q184.41 -7.45 184.85 -7.17Q185.28 -6.9 185.49 -6.52L185.49 -6.52L178.4 -6.52L178.4 -6.52Q178.6 -6.92 179.01 -7.18Q179.42 -7.45 180.07 -7.59Q180.72 -7.74 181.64 -7.74ZM191.37 -10.22L191.37 0L195.4 0L195.4 -7.27L202.57 -7.27L202.57 -10.22ZM210.84 0.2L211.43 0.2Q213.65 0.2 215.31 -0.37Q216.97 -0.94 217.9 -2.09Q218.82 -3.24 218.82 -5.01L218.82 -5.21Q218.82 -6.94 217.9 -8.1Q216.97 -9.26 215.31 -9.83Q213.65 -10.41 211.43 -10.41L210.84 -10.41Q209.17 -10.41 207.81 -10.09Q206.44 -9.77 205.47 -9.11Q204.5 -8.45 203.97 -7.48Q203.45 -6.5 203.45 -5.21L203.45 -5.01Q203.45 -3.69 203.97 -2.71Q204.5 -1.73 205.47 -1.09Q206.44 -0.45 207.81 -0.13Q209.17 0.2 210.84 0.2ZM214.79 -5.01Q214.79 -4.4 214.49 -3.91Q214.18 -3.42 213.45 -3.12Q212.71 -2.83 211.43 -2.83L210.84 -2.83Q209.57 -2.83 208.83 -3.12Q208.09 -3.42 207.79 -3.91Q207.48 -4.4 207.48 -5.01L207.48 -5.21Q207.48 -5.82 207.79 -6.31Q208.09 -6.8 208.83 -7.09Q209.57 -7.39 210.84 -7.39L211.43 -7.39Q212.71 -7.39 213.45 -7.09Q214.18 -6.8 214.49 -6.31Q214.79 -5.82 214.79 -5.21ZM26.09 19.85Q26.09 21.61 27.01 22.74Q27.92 23.87 29.55 24.41Q31.18 24.96 33.37 24.96L33.95 24.96Q35.45 24.96 36.76 24.67Q38.08 24.39 39.07 23.83Q40.07 23.27 40.64 22.42Q41.21 21.58 41.21 20.44L41.21 20.44L37.18 20.44L37.18 20.44Q37.18 20.95 36.75 21.28Q36.33 21.61 35.61 21.77Q34.88 21.93 33.95 21.93L33.37 21.93Q32.32 21.93 31.6 21.68Q30.87 21.44 30.5 20.98Q30.12 20.51 30.12 19.85L30.12 19.65Q30.12 18.94 30.5 18.43Q30.87 17.92 31.6 17.65Q32.32 17.37 33.37 17.37L33.95 17.37Q34.88 17.37 35.59 17.55Q36.29 17.72 36.69 18.04Q37.08 18.35 37.08 18.77L37.08 18.77L41.11 18.77L41.11 18.77Q41.11 17.23 40.15 16.26Q39.2 15.29 37.57 14.82Q35.94 14.34 33.95 14.34L33.37 14.34Q31.18 14.34 29.55 14.93Q27.92 15.52 27.01 16.7Q26.09 17.88 26.09 19.65ZM50.36 24.96L50.95 24.96Q53.17 24.96 54.83 24.39Q56.49 23.82 57.42 22.67Q58.34 21.52 58.34 19.75L58.34 19.55Q58.34 17.82 57.42 16.66Q56.49 15.5 54.83 14.92Q53.17 14.34 50.95 14.34L50.36 14.34Q48.69 14.34 47.33 14.67Q45.96 14.99 44.99 15.65Q44.02 16.31 43.49 17.28Q42.97 18.25 42.97 19.55L42.97 19.75Q42.97 21.06 43.49 22.05Q44.02 23.03 44.99 23.67Q45.96 24.31 47.33 24.63Q48.69 24.96 50.36 24.96ZM54.31 19.75Q54.31 20.36 54.01 20.85Q53.7 21.34 52.97 21.63Q52.23 21.93 50.95 21.93L50.36 21.93Q49.09 21.93 48.35 21.63Q47.61 21.34 47.31 20.85Q47 20.36 47 19.75L47 19.55Q47 18.94 47.31 18.45Q47.61 17.96 48.35 17.67Q49.09 17.37 50.36 17.37L50.95 17.37Q52.23 17.37 52.97 17.67Q53.7 17.96 54.01 18.45Q54.31 18.94 54.31 19.55ZM63.84 17.49L63.84 24.76L67.87 24.76L67.87 17.49L72.49 17.49L72.49 14.54L59.22 14.54L59.22 17.49ZM73.96 14.54L73.96 29.47L77.99 29.47L77.99 23.3L78.48 23.3Q78.89 23.8 79.46 24.17Q80.03 24.54 80.84 24.75Q81.64 24.96 82.75 24.96L83.33 24.96Q84.51 24.96 85.59 24.68Q86.68 24.41 87.51 23.8Q88.35 23.19 88.83 22.19Q89.31 21.2 89.31 19.75L89.31 19.55Q89.31 18.14 88.83 17.13Q88.35 16.13 87.51 15.52Q86.68 14.91 85.59 14.63Q84.51 14.34 83.33 14.34L82.75 14.34Q81.68 14.34 80.9 14.55Q80.11 14.76 79.52 15.12Q78.93 15.48 78.48 15.98L77.99 15.98L77.99 14.54ZM85.28 19.75Q85.28 20.53 84.85 21.02Q84.42 21.5 83.66 21.71Q82.9 21.93 81.92 21.93L81.35 21.93Q80.39 21.93 79.62 21.71Q78.85 21.5 78.42 21.02Q77.99 20.53 77.99 19.75L77.99 19.55Q77.99 18.79 78.42 18.3Q78.85 17.82 79.62 17.6Q80.39 17.37 81.35 17.37L81.92 17.37Q82.9 17.37 83.66 17.6Q84.42 17.82 84.85 18.3Q85.28 18.79 85.28 19.55ZM95.64 24.78L93.12 29.47L96.91 29.47L104.89 14.54L101.1 14.54L98.07 20.22L97.23 20.22L93.77 14.54L89.41 14.54ZM104.01 21.81L104.01 27.31L107.74 27.31L107.74 24.76L118.41 24.76L118.41 27.31L122.14 27.31L122.14 21.81L120.18 21.81L120.18 14.54L106.7 14.54Q106.7 15.99 106.67 17.07Q106.64 18.14 106.57 18.96Q106.5 19.79 106.36 20.48Q106.23 21.16 106.01 21.81ZM116.15 17.49L116.15 21.81L109.7 21.81Q109.84 21.34 109.94 20.89Q110.04 20.44 110.11 19.93Q110.18 19.43 110.24 18.83Q110.29 18.24 110.31 17.49ZM123.62 14.54L123.62 24.76L127.65 24.76L127.65 20.99L134.13 20.99L134.13 24.76L138.16 24.76L138.16 14.54L134.13 14.54L134.13 18.16L127.65 18.16L127.65 14.54ZM151.3 17.98L151.3 24.76L155.33 24.76L155.33 14.54L149.54 14.54L145.02 21.32L144.35 21.32L144.35 14.54L140.32 14.54L140.32 24.76L146.12 24.76L150.64 17.98ZM157.49 14.54L157.49 24.76L161.52 24.76L161.52 20.99L162.56 20.99L166.93 24.76L172.33 24.76L166.61 19.79L166.61 18.96L171.94 14.54L166.83 14.54L162.56 18.16L161.52 18.16L161.52 14.54ZM182.61 23.27L182.61 24.76L186.63 24.76L186.63 18.16Q186.63 17 185.96 16.14Q185.28 15.29 183.79 14.82Q182.31 14.34 179.91 14.34L179.32 14.34Q176.95 14.34 175.44 14.8Q173.94 15.25 173.23 16.07Q172.53 16.9 172.53 18.02L172.53 18.04L176.55 18.04L176.55 18.02Q176.55 17.65 176.84 17.4Q177.12 17.15 177.73 17.02Q178.34 16.88 179.3 16.88L179.85 16.88Q180.84 16.88 181.44 17.03Q182.04 17.17 182.32 17.46Q182.61 17.74 182.61 18.16L182.61 18.43L177.65 18.43Q175.85 18.43 174.67 18.8Q173.49 19.16 172.91 19.91Q172.33 20.65 172.33 21.79Q172.33 22.83 172.91 23.53Q173.49 24.23 174.54 24.59Q175.59 24.96 177.01 24.96Q178.32 24.96 179.26 24.76Q180.19 24.56 180.85 24.19Q181.51 23.82 182 23.27ZM182.61 20.73Q182.61 21.06 182.39 21.31Q182.17 21.56 181.8 21.74Q181.43 21.93 180.96 22.04Q180.48 22.15 179.95 22.2Q179.42 22.26 178.91 22.26Q177.46 22.26 176.96 22.02Q176.46 21.77 176.46 21.4Q176.46 20.95 176.9 20.77Q177.34 20.59 178.4 20.59L182.61 20.59ZM188.21 11.59L189.78 20.14L192.33 20.14L193.9 11.59ZM193.02 23.09L193.02 23.05Q193.02 22.24 192.46 21.71Q191.9 21.18 191.13 21.18L190.96 21.18Q190.19 21.18 189.64 21.71Q189.09 22.24 189.09 23.05L189.09 23.09Q189.09 23.93 189.64 24.44Q190.19 24.96 190.96 24.96L191.13 24.96Q191.9 24.96 192.46 24.44Q193.02 23.93 193.02 23.09Z"/></svg>