<svg xmlns="http://www.w3.org/2000/svg" width="195" height="33" fill="none" viewBox="0 0 195 33"><defs><linearGradient id="a" x1="0" x2="149" y1="11.45" y2="11.45" gradientUnits="userSpaceOnUse"><stop stop-color="#82d5ff"/><stop offset=".29" stop-color="#8b8eff"/><stop offset=".55" stop-color="#7e3ffc"/><stop offset=".77" stop-color="#ab57ff"/><stop offset=".91" stop-color="#d35ef8"/><stop offset="1" stop-color="#ff66ef"/></linearGradient></defs><rect width="195" height="33" rx="16.50" fill="url(#a)"/><g transform="translate(12.50,9.00)"><svg width="170" height="15" viewBox="0 -11 170 15"><path fill="#fff" d="M7.96 -2.88Q7.96 -2.46 7.68 -2.12Q7.4 -1.79 6.84 -1.6Q6.28 -1.41 5.46 -1.41L5.2 -1.41Q4.32 -1.41 3.73 -1.62Q3.14 -1.83 2.83 -2.31Q2.52 -2.79 2.52 -3.53L2.52 -3.74L0.5 -3.74L0.5 -3.55Q0.5 -2.52 0.86 -1.81Q1.21 -1.11 1.83 -0.67Q2.46 -0.24 3.31 -0.05Q4.17 0.14 5.17 0.14L5.44 0.14Q6.78 0.14 7.8 -0.17Q8.82 -0.49 9.41 -1.13Q9.99 -1.77 9.99 -2.76L9.99 -2.93Q9.99 -3.46 9.82 -3.88Q9.64 -4.31 9.32 -4.62Q8.99 -4.93 8.53 -5.12L8.53 -5.53Q9.16 -5.88 9.44 -6.36Q9.72 -6.84 9.72 -7.43L9.72 -7.59Q9.72 -8.46 9.2 -9.07Q8.69 -9.67 7.71 -9.98Q6.73 -10.29 5.43 -10.29L5.17 -10.29Q3.84 -10.29 2.8 -9.94Q1.77 -9.58 1.19 -8.83Q0.61 -8.08 0.61 -6.91L0.61 -6.65L2.62 -6.65L2.62 -6.9Q2.62 -7.37 2.8 -7.72Q2.99 -8.06 3.32 -8.29Q3.65 -8.52 4.11 -8.63Q4.56 -8.73 5.15 -8.73L5.41 -8.73Q6.58 -8.73 7.15 -8.37Q7.72 -8 7.72 -7.41L7.72 -7.28Q7.72 -6.96 7.59 -6.72Q7.46 -6.47 7.23 -6.3Q7 -6.12 6.67 -6.06Q6.34 -5.99 5.91 -5.99L4.08 -5.99L4.08 -4.41L5.93 -4.41Q6.59 -4.41 7.05 -4.25Q7.5 -4.09 7.73 -3.78Q7.96 -3.47 7.96 -3.03ZM17.08 -0.99L17.08 0L19.01 0L19.01 -5.03Q19.01 -5.93 18.61 -6.55Q18.2 -7.17 17.39 -7.5Q16.57 -7.82 15.29 -7.82L15.04 -7.82Q13.84 -7.82 13 -7.5Q12.17 -7.17 11.76 -6.55Q11.35 -5.93 11.35 -5.08L11.35 -5.08L13.28 -5.08L13.28 -5.08Q13.28 -5.55 13.5 -5.84Q13.72 -6.12 14.11 -6.28Q14.51 -6.43 15.04 -6.43L15.28 -6.43Q15.85 -6.43 16.26 -6.28Q16.66 -6.12 16.87 -5.83Q17.08 -5.53 17.08 -5.03L17.08 -4.53L14.43 -4.53Q13.28 -4.53 12.55 -4.26Q11.82 -3.99 11.48 -3.46Q11.14 -2.93 11.14 -2.18Q11.14 -1.38 11.5 -0.86Q11.85 -0.35 12.49 -0.11Q13.13 0.14 13.93 0.14Q14.57 0.14 15.07 0.03Q15.58 -0.08 16 -0.33Q16.42 -0.59 16.72 -0.99ZM17.08 -3.08Q17.08 -2.67 16.94 -2.37Q16.79 -2.08 16.56 -1.87Q16.32 -1.67 16.01 -1.55Q15.69 -1.42 15.35 -1.36Q15.01 -1.3 14.67 -1.3Q13.85 -1.3 13.46 -1.58Q13.07 -1.85 13.07 -2.32Q13.07 -2.87 13.44 -3.11Q13.81 -3.35 14.64 -3.35L17.08 -3.35ZM20.71 -7.69L20.71 3.64L22.62 3.64L22.62 -1.02L22.95 -1.02Q23.24 -0.62 23.64 -0.36Q24.03 -0.11 24.51 0.02Q24.98 0.14 25.56 0.14L25.82 0.14Q26.55 0.14 27.17 -0.08Q27.79 -0.3 28.25 -0.74Q28.71 -1.17 28.96 -1.84Q29.2 -2.52 29.2 -3.44L29.2 -4.24Q29.2 -5.14 28.96 -5.82Q28.71 -6.5 28.25 -6.94Q27.79 -7.38 27.17 -7.6Q26.55 -7.82 25.82 -7.82L25.56 -7.82Q24.98 -7.82 24.51 -7.69Q24.04 -7.56 23.65 -7.31Q23.26 -7.06 22.95 -6.67L22.62 -6.67L22.62 -7.69ZM27.29 -3.43Q27.29 -2.77 27.02 -2.31Q26.74 -1.85 26.25 -1.62Q25.76 -1.39 25.09 -1.39L24.85 -1.39Q24.17 -1.39 23.67 -1.63Q23.18 -1.86 22.9 -2.31Q22.62 -2.76 22.62 -3.43L22.62 -4.26Q22.62 -4.91 22.9 -5.37Q23.18 -5.82 23.67 -6.06Q24.17 -6.29 24.85 -6.29L25.09 -6.29Q25.76 -6.29 26.25 -6.06Q26.74 -5.82 27.02 -5.37Q27.29 -4.91 27.29 -4.26ZM37.17 -2.52Q37 -1.91 36.46 -1.58Q35.93 -1.26 35 -1.26L34.74 -1.26Q34.06 -1.26 33.58 -1.49Q33.11 -1.73 32.83 -2.15Q32.56 -2.58 32.55 -3.27L32.55 -3.37L39.05 -3.37L39.05 -4.23Q39.05 -5.44 38.52 -6.23Q37.99 -7.02 37.07 -7.42Q36.15 -7.82 35 -7.82L34.74 -7.82Q33.58 -7.82 32.66 -7.42Q31.74 -7.02 31.21 -6.23Q30.68 -5.44 30.68 -4.23L30.68 -3.43Q30.68 -2.23 31.21 -1.42Q31.74 -0.62 32.66 -0.24Q33.58 0.14 34.74 0.14L35 0.14Q36.2 0.14 37.05 -0.19Q37.9 -0.52 38.37 -1.11Q38.85 -1.71 38.96 -2.52ZM35 -6.41Q35.59 -6.41 36.06 -6.22Q36.53 -6.02 36.82 -5.64Q37.11 -5.26 37.15 -4.7L37.15 -4.67L32.56 -4.67L32.56 -4.7Q32.64 -5.26 32.91 -5.64Q33.18 -6.02 33.63 -6.22Q34.08 -6.41 34.73 -6.41ZM40.67 -7.69L40.67 0L42.58 0L42.58 -6.14L46.92 -6.14L46.92 -7.69ZM54.39 -5.28L54.39 0L56.32 0L56.32 -7.69L53.84 -7.69L50.48 -2.41L50.07 -2.41L50.07 -7.69L48.16 -7.69L48.16 0L50.62 0L53.98 -5.28ZM57.94 -3.43Q57.94 -2.21 58.45 -1.42Q58.96 -0.64 59.87 -0.25Q60.78 0.14 61.99 0.14L62.25 0.14Q63.11 0.14 63.85 -0.07Q64.58 -0.27 65.12 -0.67Q65.66 -1.06 65.95 -1.62Q66.23 -2.18 66.23 -2.93L66.23 -2.99L64.34 -2.99L64.34 -2.93Q64.34 -2.47 64.09 -2.13Q63.84 -1.79 63.36 -1.59Q62.88 -1.39 62.25 -1.39L61.99 -1.39Q61.31 -1.39 60.84 -1.63Q60.37 -1.86 60.11 -2.31Q59.85 -2.76 59.85 -3.4L59.85 -4.23Q59.85 -4.88 60.11 -5.34Q60.37 -5.81 60.84 -6.05Q61.31 -6.29 61.99 -6.29L62.25 -6.29Q62.9 -6.29 63.36 -6.09Q63.82 -5.88 64.06 -5.52Q64.29 -5.15 64.29 -4.65L64.29 -4.58L66.2 -4.58L66.2 -4.65Q66.2 -5.7 65.7 -6.4Q65.2 -7.09 64.3 -7.46Q63.4 -7.82 62.25 -7.82L61.99 -7.82Q60.78 -7.82 59.87 -7.42Q58.96 -7.02 58.45 -6.22Q57.94 -5.41 57.94 -4.23ZM69.93 -6.14L69.93 0L71.87 0L71.87 -6.14L74.85 -6.14L74.85 -7.69L66.97 -7.69L66.97 -6.14ZM76.09 -7.69L76.09 3.64L78 3.64L78 -1.02L78.34 -1.02Q78.62 -0.62 79.02 -0.36Q79.41 -0.11 79.89 0.02Q80.37 0.14 80.94 0.14L81.2 0.14Q81.93 0.14 82.55 -0.08Q83.17 -0.3 83.63 -0.74Q84.1 -1.17 84.34 -1.84Q84.58 -2.52 84.58 -3.44L84.58 -4.24Q84.58 -5.14 84.34 -5.82Q84.1 -6.5 83.63 -6.94Q83.17 -7.38 82.55 -7.6Q81.93 -7.82 81.2 -7.82L80.94 -7.82Q80.37 -7.82 79.9 -7.69Q79.43 -7.56 79.03 -7.31Q78.64 -7.06 78.34 -6.67L78 -6.67L78 -7.69ZM82.67 -3.43Q82.67 -2.77 82.4 -2.31Q82.13 -1.85 81.63 -1.62Q81.14 -1.39 80.47 -1.39L80.23 -1.39Q79.55 -1.39 79.06 -1.63Q78.56 -1.86 78.28 -2.31Q78 -2.76 78 -3.43L78 -4.26Q78 -4.91 78.28 -5.37Q78.56 -5.82 79.06 -6.06Q79.55 -6.29 80.23 -6.29L80.47 -6.29Q81.14 -6.29 81.63 -6.06Q82.13 -5.82 82.4 -5.37Q82.67 -4.91 82.67 -4.26ZM92.45 -5.28L92.45 0L94.37 0L94.37 -7.69L91.9 -7.69L88.54 -2.41L88.13 -2.41L88.13 -7.69L86.22 -7.69L86.22 0L88.67 0L92.04 -5.28ZM96.15 -7.69L96.15 3.64L98.06 3.64L98.06 -1.02L98.39 -1.02Q98.68 -0.62 99.08 -0.36Q99.47 -0.11 99.95 0.02Q100.43 0.14 101 0.14L101.26 0.14Q101.99 0.14 102.61 -0.08Q103.23 -0.3 103.69 -0.74Q104.15 -1.17 104.4 -1.84Q104.64 -2.52 104.64 -3.44L104.64 -4.24Q104.64 -5.14 104.4 -5.82Q104.15 -6.5 103.69 -6.94Q103.23 -7.38 102.61 -7.6Q101.99 -7.82 101.26 -7.82L101 -7.82Q100.43 -7.82 99.96 -7.69Q99.49 -7.56 99.09 -7.31Q98.7 -7.06 98.39 -6.67L98.06 -6.67L98.06 -7.69ZM102.73 -3.43Q102.73 -2.77 102.46 -2.31Q102.18 -1.85 101.69 -1.62Q101.2 -1.39 100.53 -1.39L100.29 -1.39Q99.61 -1.39 99.11 -1.63Q98.62 -1.86 98.34 -2.31Q98.06 -2.76 98.06 -3.43L98.06 -4.26Q98.06 -4.91 98.34 -5.37Q98.62 -5.82 99.11 -6.06Q99.61 -6.29 100.29 -6.29L100.53 -6.29Q101.2 -6.29 101.69 -6.06Q102.18 -5.82 102.46 -5.37Q102.73 -4.91 102.73 -4.26ZM110.26 0.14L110.52 0.14Q111.72 0.14 112.64 -0.25Q113.57 -0.64 114.1 -1.44Q114.63 -2.24 114.63 -3.44L114.63 -4.24Q114.63 -5.43 114.1 -6.22Q113.57 -7.02 112.63 -7.42Q111.69 -7.82 110.52 -7.82L110.26 -7.82Q109.35 -7.82 108.59 -7.59Q107.82 -7.37 107.28 -6.92Q106.74 -6.47 106.43 -5.8Q106.12 -5.12 106.12 -4.24L106.12 -3.44Q106.12 -2.53 106.42 -1.86Q106.71 -1.2 107.27 -0.76Q107.82 -0.32 108.59 -0.09Q109.35 0.14 110.26 0.14ZM112.7 -3.43Q112.7 -2.79 112.45 -2.33Q112.2 -1.88 111.72 -1.64Q111.23 -1.39 110.52 -1.39L110.26 -1.39Q109.52 -1.39 109.03 -1.64Q108.55 -1.88 108.29 -2.33Q108.03 -2.79 108.03 -3.43L108.03 -4.26Q108.03 -4.88 108.3 -5.34Q108.56 -5.81 109.04 -6.05Q109.52 -6.29 110.26 -6.29L110.52 -6.29Q111.23 -6.29 111.72 -6.05Q112.2 -5.81 112.45 -5.34Q112.7 -4.88 112.7 -4.26ZM116.25 0L121.13 0Q122.15 0 122.76 -0.27Q123.38 -0.53 123.65 -1Q123.92 -1.47 123.92 -2.06Q123.92 -2.8 123.52 -3.21Q123.12 -3.62 122.54 -3.79L122.54 -4.15Q123.09 -4.35 123.41 -4.74Q123.74 -5.12 123.74 -5.78Q123.74 -6.35 123.47 -6.78Q123.19 -7.22 122.58 -7.45Q121.97 -7.69 121.01 -7.69L116.25 -7.69ZM120.69 -4.5L118.15 -4.5L118.15 -6.41L120.71 -6.41Q121.27 -6.41 121.53 -6.15Q121.78 -5.9 121.78 -5.47Q121.78 -5.03 121.54 -4.77Q121.3 -4.5 120.69 -4.5ZM120.71 -1.27L118.15 -1.27L118.15 -3.27L120.72 -3.27Q121.36 -3.27 121.66 -3.03Q121.97 -2.79 121.97 -2.29Q121.97 -1.76 121.66 -1.52Q121.36 -1.27 120.71 -1.27ZM130.96 -0.99L130.96 0L132.88 0L132.88 -5.03Q132.88 -5.93 132.48 -6.55Q132.08 -7.17 131.26 -7.5Q130.44 -7.82 129.17 -7.82L128.91 -7.82Q127.71 -7.82 126.88 -7.5Q126.05 -7.17 125.64 -6.55Q125.23 -5.93 125.23 -5.08L125.23 -5.08L127.15 -5.08L127.15 -5.08Q127.15 -5.55 127.37 -5.84Q127.59 -6.12 127.99 -6.28Q128.38 -6.43 128.91 -6.43L129.15 -6.43Q129.73 -6.43 130.13 -6.28Q130.53 -6.12 130.75 -5.83Q130.96 -5.53 130.96 -5.03L130.96 -4.53L128.31 -4.53Q127.15 -4.53 126.43 -4.26Q125.7 -3.99 125.36 -3.46Q125.02 -2.93 125.02 -2.18Q125.02 -1.38 125.37 -0.86Q125.73 -0.35 126.37 -0.11Q127 0.14 127.81 0.14Q128.44 0.14 128.95 0.03Q129.46 -0.08 129.87 -0.33Q130.29 -0.59 130.59 -0.99ZM130.96 -3.08Q130.96 -2.67 130.81 -2.37Q130.67 -2.08 130.44 -1.87Q130.2 -1.67 129.88 -1.55Q129.56 -1.42 129.22 -1.36Q128.88 -1.3 128.55 -1.3Q127.73 -1.3 127.34 -1.58Q126.94 -1.85 126.94 -2.32Q126.94 -2.87 127.31 -3.11Q127.68 -3.35 128.52 -3.35L130.96 -3.35ZM136.74 -6.14L136.74 0L138.68 0L138.68 -6.14L141.67 -6.14L141.67 -7.69L133.79 -7.69L133.79 -6.14ZM142.91 0L147.76 0Q148.62 0 149.25 -0.27Q149.88 -0.53 150.21 -1.07Q150.55 -1.61 150.55 -2.46L150.55 -2.73Q150.55 -3.58 150.21 -4.12Q149.86 -4.67 149.24 -4.93Q148.61 -5.18 147.76 -5.18L144.82 -5.18L144.82 -7.69L142.91 -7.69ZM147.32 -1.42L144.82 -1.42L144.82 -3.74L147.33 -3.74Q147.97 -3.74 148.3 -3.49Q148.62 -3.23 148.62 -2.7L148.62 -2.47Q148.62 -1.96 148.3 -1.69Q147.97 -1.42 147.32 -1.42ZM151.94 -3.43Q151.94 -2.21 152.44 -1.42Q152.95 -0.64 153.86 -0.25Q154.77 0.14 155.98 0.14L156.24 0.14Q157.11 0.14 157.84 -0.07Q158.58 -0.27 159.11 -0.67Q159.65 -1.06 159.94 -1.62Q160.23 -2.18 160.23 -2.93L160.23 -2.99L158.33 -2.99L158.33 -2.93Q158.33 -2.47 158.08 -2.13Q157.83 -1.79 157.36 -1.59Q156.88 -1.39 156.24 -1.39L155.98 -1.39Q155.3 -1.39 154.83 -1.63Q154.36 -1.86 154.1 -2.31Q153.85 -2.76 153.85 -3.4L153.85 -4.23Q153.85 -4.88 154.1 -5.34Q154.36 -5.81 154.83 -6.05Q155.3 -6.29 155.98 -6.29L156.24 -6.29Q156.89 -6.29 157.36 -6.09Q157.82 -5.88 158.05 -5.52Q158.29 -5.15 158.29 -4.65L158.29 -4.58L160.2 -4.58L160.2 -4.65Q160.2 -5.7 159.7 -6.4Q159.2 -7.09 158.3 -7.46Q157.39 -7.82 156.24 -7.82L155.98 -7.82Q154.77 -7.82 153.86 -7.42Q152.95 -7.02 152.44 -6.22Q151.94 -5.41 151.94 -4.23ZM161.23 0L163.43 0L165.35 -2.65L165.26 -2.64L167.34 -2.64L167.34 0L169.26 0L169.26 -7.69L164.62 -7.69Q163.71 -7.69 163.04 -7.41Q162.36 -7.14 161.99 -6.59Q161.62 -6.05 161.62 -5.26L161.62 -5.06Q161.62 -4.47 161.84 -4.05Q162.06 -3.62 162.47 -3.34Q162.88 -3.06 163.36 -2.94L163.36 -2.99ZM167.34 -6.29L167.34 -4.05L164.82 -4.05Q164.44 -4.05 164.15 -4.15Q163.86 -4.26 163.71 -4.49Q163.55 -4.73 163.55 -5.09L163.55 -5.25Q163.55 -5.59 163.72 -5.84Q163.9 -6.08 164.17 -6.18Q164.44 -6.29 164.82 -6.29Z"/></svg></g></svg>