<svg xmlns="http://www.w3.org/2000/svg" width="259" height="14" fill="none" viewBox="0 -10 259 14"><path fill="#fff" d="M8.26 0L8.26 1.94L9.57 1.94L9.57 -1.15L8.28 -1.15L8.28 -9.28L6.91 -9.28L6.91 -4.9Q6.65 -4.85 6.32 -4.81Q6 -4.77 5.64 -4.75Q5.28 -4.72 4.97 -4.72L4.63 -4.72Q4.05 -4.72 3.56 -4.81Q3.08 -4.89 2.72 -5.11Q2.36 -5.33 2.17 -5.72Q1.98 -6.11 1.98 -6.69L1.98 -9.28L0.6 -9.28L0.6 -6.73Q0.6 -5.8 0.88 -5.18Q1.16 -4.56 1.71 -4.2Q2.26 -3.85 2.99 -3.71Q3.73 -3.56 4.61 -3.56L4.9 -3.56Q5.24 -3.56 5.6 -3.59Q5.96 -3.62 6.29 -3.66Q6.62 -3.71 6.91 -3.77L6.91 0ZM13.93 0.12L14.15 0.12Q15.18 0.12 15.98 -0.24Q16.79 -0.6 17.25 -1.32Q17.71 -2.05 17.71 -3.16L17.71 -3.77Q17.71 -4.86 17.25 -5.6Q16.79 -6.33 15.98 -6.7Q15.18 -7.07 14.15 -7.07L13.93 -7.07Q13.17 -7.07 12.52 -6.86Q11.87 -6.65 11.39 -6.24Q10.91 -5.83 10.64 -5.22Q10.37 -4.61 10.37 -3.77L10.37 -3.16Q10.37 -2.33 10.64 -1.71Q10.91 -1.09 11.39 -0.69Q11.87 -0.28 12.52 -0.08Q13.17 0.12 13.93 0.12ZM16.38 -3.14Q16.38 -2.45 16.13 -1.97Q15.87 -1.48 15.37 -1.21Q14.86 -0.94 14.15 -0.94L13.93 -0.94Q13.24 -0.94 12.73 -1.21Q12.23 -1.48 11.96 -1.97Q11.69 -2.45 11.69 -3.14L11.69 -3.8Q11.69 -4.47 11.96 -4.96Q12.24 -5.44 12.74 -5.71Q13.24 -5.99 13.93 -5.99L14.15 -5.99Q14.86 -5.99 15.36 -5.71Q15.86 -5.44 16.12 -4.96Q16.38 -4.47 16.38 -3.8ZM24.69 -5.07L24.69 0L26 0L26 -6.93L24.41 -6.93L20.91 -1.87L20.55 -1.87L20.55 -6.93L19.23 -6.93L19.23 0L20.84 0L24.31 -5.07ZM23.8 -9.98Q23.8 -9.5 23.66 -9.23Q23.51 -8.96 23.28 -8.86Q23.04 -8.76 22.72 -8.76Q22.42 -8.76 22.17 -8.86Q21.93 -8.96 21.8 -9.23Q21.67 -9.5 21.67 -9.98L20.63 -9.98L20.63 -9.92Q20.63 -8.91 21.18 -8.46Q21.74 -8.01 22.72 -8.01Q23.72 -8.01 24.27 -8.45Q24.81 -8.89 24.81 -9.92L24.81 -9.98ZM33.12 -5.07L33.12 0L34.44 0L34.44 -6.93L32.84 -6.93L29.34 -1.87L28.98 -1.87L28.98 -6.93L27.66 -6.93L27.66 0L29.27 0L32.75 -5.07ZM39.19 -6.93L39.19 0L40.51 0L40.51 -2.99L40.98 -2.99L44.15 0L45.88 0L42.31 -3.45L42.31 -3.85L45.68 -6.93L44.15 -6.93L40.98 -4.06L40.51 -4.06L40.51 -6.93ZM49.74 0.12L49.96 0.12Q50.99 0.12 51.79 -0.24Q52.59 -0.6 53.06 -1.32Q53.52 -2.05 53.52 -3.16L53.52 -3.77Q53.52 -4.86 53.06 -5.6Q52.59 -6.33 51.79 -6.7Q50.99 -7.07 49.96 -7.07L49.74 -7.07Q48.98 -7.07 48.33 -6.86Q47.68 -6.65 47.2 -6.24Q46.72 -5.83 46.45 -5.22Q46.18 -4.61 46.18 -3.77L46.18 -3.16Q46.18 -2.33 46.45 -1.71Q46.72 -1.09 47.2 -0.69Q47.68 -0.28 48.33 -0.08Q48.98 0.12 49.74 0.12ZM52.19 -3.14Q52.19 -2.45 51.94 -1.97Q51.68 -1.48 51.17 -1.21Q50.67 -0.94 49.96 -0.94L49.74 -0.94Q49.05 -0.94 48.54 -1.21Q48.04 -1.48 47.77 -1.97Q47.5 -2.45 47.5 -3.14L47.5 -3.8Q47.5 -4.47 47.77 -4.96Q48.05 -5.44 48.55 -5.71Q49.05 -5.99 49.74 -5.99L49.96 -5.99Q50.67 -5.99 51.17 -5.71Q51.67 -5.44 51.93 -4.96Q52.19 -4.47 52.19 -3.8ZM55.04 -6.93L55.04 3.33L56.35 3.33L56.35 -0.97L56.65 -0.97Q56.92 -0.57 57.3 -0.34Q57.68 -0.11 58.13 0Q58.57 0.11 59.04 0.11L59.25 0.11Q59.94 0.11 60.5 -0.09Q61.06 -0.29 61.49 -0.7Q61.92 -1.11 62.15 -1.72Q62.37 -2.33 62.37 -3.16L62.37 -3.78Q62.37 -4.59 62.15 -5.21Q61.92 -5.83 61.49 -6.24Q61.06 -6.65 60.5 -6.86Q59.94 -7.07 59.25 -7.07L59.04 -7.07Q58.57 -7.07 58.13 -6.94Q57.68 -6.82 57.32 -6.59Q56.95 -6.37 56.65 -5.97L56.35 -5.97L56.35 -6.93ZM61.05 -3.14Q61.05 -2.45 60.78 -1.96Q60.51 -1.47 60.01 -1.21Q59.5 -0.94 58.82 -0.94L58.6 -0.94Q57.92 -0.94 57.41 -1.2Q56.89 -1.45 56.62 -1.95Q56.35 -2.44 56.35 -3.14L56.35 -3.78Q56.35 -4.49 56.64 -4.99Q56.92 -5.49 57.42 -5.74Q57.92 -5.99 58.6 -5.99L58.82 -5.99Q59.5 -5.99 60.01 -5.74Q60.51 -5.49 60.78 -4.98Q61.05 -4.47 61.05 -3.78ZM69.35 -5.07L69.35 0L70.67 0L70.67 -6.93L69.07 -6.93L65.57 -1.87L65.21 -1.87L65.21 -6.93L63.89 -6.93L63.89 0L65.5 0L68.98 -5.07ZM72.32 -6.93L72.32 3.33L73.64 3.33L73.64 -0.97L73.93 -0.97Q74.21 -0.57 74.59 -0.34Q74.97 -0.11 75.41 0Q75.86 0.11 76.33 0.11L76.54 0.11Q77.23 0.11 77.79 -0.09Q78.35 -0.29 78.78 -0.7Q79.21 -1.11 79.43 -1.72Q79.65 -2.33 79.65 -3.16L79.65 -3.78Q79.65 -4.59 79.43 -5.21Q79.21 -5.83 78.78 -6.24Q78.35 -6.65 77.79 -6.86Q77.23 -7.07 76.54 -7.07L76.33 -7.07Q75.86 -7.07 75.41 -6.94Q74.97 -6.82 74.6 -6.59Q74.24 -6.37 73.93 -5.97L73.64 -5.97L73.64 -6.93ZM78.34 -3.14Q78.34 -2.45 78.07 -1.96Q77.8 -1.47 77.29 -1.21Q76.79 -0.94 76.11 -0.94L75.88 -0.94Q75.21 -0.94 74.69 -1.2Q74.18 -1.45 73.91 -1.95Q73.64 -2.44 73.64 -3.14L73.64 -3.78Q73.64 -4.49 73.92 -4.99Q74.21 -5.49 74.71 -5.74Q75.21 -5.99 75.88 -5.99L76.11 -5.99Q76.79 -5.99 77.29 -5.74Q77.8 -5.49 78.07 -4.98Q78.34 -4.47 78.34 -3.78ZM84.6 0.12L84.82 0.12Q85.85 0.12 86.65 -0.24Q87.45 -0.6 87.92 -1.32Q88.38 -2.05 88.38 -3.16L88.38 -3.77Q88.38 -4.86 87.92 -5.6Q87.45 -6.33 86.65 -6.7Q85.85 -7.07 84.82 -7.07L84.6 -7.07Q83.84 -7.07 83.19 -6.86Q82.54 -6.65 82.06 -6.24Q81.58 -5.83 81.31 -5.22Q81.04 -4.61 81.04 -3.77L81.04 -3.16Q81.04 -2.33 81.31 -1.71Q81.58 -1.09 82.06 -0.69Q82.54 -0.28 83.19 -0.08Q83.84 0.12 84.6 0.12ZM87.05 -3.14Q87.05 -2.45 86.8 -1.97Q86.54 -1.48 86.03 -1.21Q85.53 -0.94 84.82 -0.94L84.6 -0.94Q83.91 -0.94 83.4 -1.21Q82.9 -1.48 82.63 -1.97Q82.36 -2.45 82.36 -3.14L82.36 -3.8Q82.36 -4.47 82.63 -4.96Q82.91 -5.44 83.41 -5.71Q83.91 -5.99 84.6 -5.99L84.82 -5.99Q85.53 -5.99 86.03 -5.71Q86.53 -5.44 86.79 -4.96Q87.05 -4.47 87.05 -3.8ZM92.51 -1.05L92.51 1.8L93.76 1.8L93.76 0L99.77 0L99.77 1.8L101.02 1.8L101.02 -1.05L99.94 -1.05L99.94 -6.93L94.08 -6.93Q94.08 -5.71 94.05 -4.79Q94.02 -3.88 93.96 -3.21Q93.89 -2.55 93.77 -2.04Q93.66 -1.52 93.46 -1.05ZM98.62 -5.87L98.62 -1.05L94.72 -1.05Q94.84 -1.47 94.95 -1.9Q95.06 -2.34 95.13 -2.89Q95.2 -3.44 95.24 -4.16Q95.29 -4.89 95.3 -5.87ZM107.22 -0.89L107.22 0L108.56 0L108.56 -4.56Q108.56 -5.36 108.2 -5.91Q107.84 -6.46 107.15 -6.76Q106.45 -7.07 105.43 -7.07L105.21 -7.07Q104.18 -7.07 103.49 -6.77Q102.8 -6.47 102.44 -5.92Q102.08 -5.36 102.08 -4.57L102.08 -4.57L103.41 -4.57L103.41 -4.57Q103.41 -5.1 103.66 -5.42Q103.9 -5.74 104.31 -5.89Q104.72 -6.04 105.21 -6.04L105.41 -6.04Q105.95 -6.04 106.36 -5.88Q106.77 -5.72 106.99 -5.4Q107.22 -5.08 107.22 -4.56L107.22 -3.99L104.68 -3.99Q103.71 -3.99 103.07 -3.75Q102.44 -3.52 102.13 -3.08Q101.83 -2.63 101.83 -1.98Q101.83 -1.25 102.16 -0.78Q102.49 -0.3 103.07 -0.09Q103.64 0.12 104.36 0.12Q104.92 0.12 105.37 0.03Q105.83 -0.07 106.22 -0.29Q106.61 -0.51 106.92 -0.89ZM107.22 -2.8Q107.22 -2.37 107.08 -2.06Q106.94 -1.76 106.7 -1.54Q106.45 -1.33 106.14 -1.2Q105.82 -1.07 105.46 -1Q105.11 -0.93 104.78 -0.93Q104 -0.93 103.58 -1.21Q103.16 -1.48 103.16 -2.05Q103.16 -2.58 103.54 -2.85Q103.93 -3.12 104.76 -3.12L107.22 -3.12ZM110.13 -6.93L110.13 3.33L111.45 3.33L111.45 -0.97L111.74 -0.97Q112.02 -0.57 112.4 -0.34Q112.78 -0.11 113.22 0Q113.67 0.11 114.14 0.11L114.35 0.11Q115.04 0.11 115.6 -0.09Q116.16 -0.29 116.59 -0.7Q117.02 -1.11 117.24 -1.72Q117.46 -2.33 117.46 -3.16L117.46 -3.78Q117.46 -4.59 117.24 -5.21Q117.02 -5.83 116.59 -6.24Q116.16 -6.65 115.6 -6.86Q115.04 -7.07 114.35 -7.07L114.14 -7.07Q113.67 -7.07 113.22 -6.94Q112.78 -6.82 112.41 -6.59Q112.05 -6.37 111.74 -5.97L111.45 -5.97L111.45 -6.93ZM116.15 -3.14Q116.15 -2.45 115.88 -1.96Q115.61 -1.47 115.1 -1.21Q114.59 -0.94 113.92 -0.94L113.69 -0.94Q113.02 -0.94 112.5 -1.2Q111.99 -1.45 111.72 -1.95Q111.45 -2.44 111.45 -3.14L111.45 -3.78Q111.45 -4.49 111.73 -4.99Q112.02 -5.49 112.52 -5.74Q113.02 -5.99 113.69 -5.99L113.92 -5.99Q114.59 -5.99 115.1 -5.74Q115.61 -5.49 115.88 -4.98Q116.15 -4.47 116.15 -3.78ZM125.47 -3.75L125.47 0L126.85 0L126.85 -3.75L130.72 -9.28L129.33 -9.28L126.4 -5.06L126.02 -5.06L122.92 -9.28L121.42 -9.28ZM133.73 0.12L133.95 0.12Q134.98 0.12 135.78 -0.24Q136.58 -0.6 137.05 -1.32Q137.51 -2.05 137.51 -3.16L137.51 -3.77Q137.51 -4.86 137.05 -5.6Q136.58 -6.33 135.78 -6.7Q134.98 -7.07 133.95 -7.07L133.73 -7.07Q132.97 -7.07 132.32 -6.86Q131.67 -6.65 131.19 -6.24Q130.71 -5.83 130.44 -5.22Q130.17 -4.61 130.17 -3.77L130.17 -3.16Q130.17 -2.33 130.44 -1.71Q130.71 -1.09 131.19 -0.69Q131.67 -0.28 132.32 -0.08Q132.97 0.12 133.73 0.12ZM136.18 -3.14Q136.18 -2.45 135.93 -1.97Q135.67 -1.48 135.16 -1.21Q134.66 -0.94 133.95 -0.94L133.73 -0.94Q133.04 -0.94 132.53 -1.21Q132.03 -1.48 131.76 -1.97Q131.49 -2.45 131.49 -3.14L131.49 -3.8Q131.49 -4.47 131.76 -4.96Q132.04 -5.44 132.54 -5.71Q133.04 -5.99 133.73 -5.99L133.95 -5.99Q134.66 -5.99 135.16 -5.71Q135.66 -5.44 135.92 -4.96Q136.18 -4.47 136.18 -3.8ZM139.03 -6.93L139.03 0L140.34 0L140.34 -4.31Q140.34 -5.06 140.74 -5.49Q141.13 -5.93 141.98 -5.93Q142.8 -5.93 143.18 -5.49Q143.57 -5.06 143.57 -4.31L143.57 -4.13L144.79 -4.13L144.79 -4.45Q144.79 -5.36 144.53 -5.94Q144.27 -6.51 143.77 -6.79Q143.27 -7.07 142.58 -7.07Q141.87 -7.07 141.41 -6.8Q140.95 -6.54 140.65 -6.12L140.3 -6.12L140.34 -6.01L140.34 -6.93ZM150.99 -0.89L150.99 0L152.33 0L152.33 -4.56Q152.33 -5.36 151.97 -5.91Q151.61 -6.46 150.92 -6.76Q150.22 -7.07 149.2 -7.07L148.98 -7.07Q147.95 -7.07 147.26 -6.77Q146.57 -6.47 146.21 -5.92Q145.85 -5.36 145.85 -4.57L145.85 -4.57L147.18 -4.57L147.18 -4.57Q147.18 -5.1 147.43 -5.42Q147.68 -5.74 148.08 -5.89Q148.49 -6.04 148.98 -6.04L149.19 -6.04Q149.73 -6.04 150.13 -5.88Q150.54 -5.72 150.77 -5.4Q150.99 -5.08 150.99 -4.56L150.99 -3.99L148.45 -3.99Q147.48 -3.99 146.84 -3.75Q146.21 -3.52 145.9 -3.08Q145.6 -2.63 145.6 -1.98Q145.6 -1.25 145.93 -0.78Q146.26 -0.3 146.84 -0.09Q147.41 0.12 148.13 0.12Q148.69 0.12 149.14 0.03Q149.6 -0.07 149.99 -0.29Q150.38 -0.51 150.7 -0.89ZM150.99 -2.8Q150.99 -2.37 150.85 -2.06Q150.71 -1.76 150.47 -1.54Q150.22 -1.33 149.91 -1.2Q149.59 -1.07 149.23 -1Q148.88 -0.93 148.55 -0.93Q147.77 -0.93 147.35 -1.21Q146.93 -1.48 146.93 -2.05Q146.93 -2.58 147.32 -2.85Q147.7 -3.12 148.53 -3.12L150.99 -3.12ZM155.53 -0.68L155.53 -0.72Q155.53 -1.05 155.28 -1.28Q155.04 -1.51 154.69 -1.51L154.67 -1.51Q154.32 -1.51 154.08 -1.28Q153.84 -1.05 153.84 -0.71L153.84 -0.68Q153.84 -0.32 154.08 -0.1Q154.32 0.12 154.67 0.12L154.69 0.12Q155.04 0.12 155.28 -0.1Q155.53 -0.33 155.53 -0.68ZM157.05 -2.23Q157.05 -1.41 157.39 -0.89Q157.73 -0.37 158.3 -0.13Q158.86 0.11 159.61 0.11L159.82 0.11Q160.54 0.11 161.09 -0.13Q161.63 -0.37 161.94 -0.89Q162.24 -1.41 162.24 -2.23L162.24 -2.87L161.04 -2.87L161.04 -2.23Q161.04 -1.81 160.89 -1.52Q160.75 -1.22 160.47 -1.08Q160.19 -0.94 159.82 -0.94L159.6 -0.94Q159.2 -0.94 158.93 -1.09Q158.66 -1.23 158.51 -1.52Q158.36 -1.81 158.36 -2.23L158.36 -5.89L161.84 -5.89L161.84 -6.93L158.36 -6.93L158.36 -8.99L157.05 -8.99L157.05 -6.93L155.95 -6.93L155.95 -5.89L157.05 -5.89ZM163.57 0.73Q163.57 1.23 163.43 1.54Q163.29 1.86 163.02 2Q162.75 2.15 162.36 2.15L161.95 2.15L161.95 3.33L162.43 3.33Q163.08 3.33 163.54 3.16Q164 2.99 164.29 2.66Q164.58 2.33 164.73 1.85Q164.88 1.37 164.88 0.78L164.88 -6.93L163.57 -6.93ZM165.02 -9.07L165.02 -9.09Q165.02 -9.39 164.81 -9.59Q164.59 -9.8 164.29 -9.8L164.21 -9.8Q163.89 -9.8 163.67 -9.59Q163.46 -9.39 163.46 -9.09L163.46 -9.07Q163.46 -8.74 163.67 -8.56Q163.89 -8.37 164.21 -8.37L164.29 -8.37Q164.59 -8.37 164.81 -8.56Q165.02 -8.74 165.02 -9.07ZM175.39 -2.95Q175.37 -1.97 174.81 -1.45Q174.24 -0.93 173.21 -0.93L172.99 -0.93Q172.33 -0.93 171.84 -1.14Q171.36 -1.36 171.1 -1.74Q170.84 -2.12 170.84 -2.6L170.84 -2.6L169.51 -2.6L169.51 -2.62Q169.51 -1.75 169.94 -1.13Q170.37 -0.51 171.16 -0.19Q171.95 0.12 173.01 0.12L173.23 0.12Q174.27 0.12 175.04 -0.22Q175.82 -0.57 176.27 -1.3Q176.72 -2.02 176.72 -3.16L176.72 -3.77Q176.72 -4.9 176.27 -5.62Q175.82 -6.35 175.04 -6.71Q174.27 -7.07 173.23 -7.07L173.01 -7.07Q171.95 -7.07 171.18 -6.72Q170.41 -6.37 169.99 -5.74Q169.56 -5.1 169.56 -4.18L169.56 -4.18L170.89 -4.18L170.89 -4.2Q170.89 -4.97 171.43 -5.49Q171.98 -6 172.99 -6L173.21 -6Q174.22 -6 174.8 -5.51Q175.37 -5.02 175.39 -4.03L175.39 -4L175.4 -4.02L172.27 -4.02L172.27 -2.99L175.46 -2.99L175.39 -3.03ZM179.42 0L183.44 0Q184.23 0 184.78 -0.24Q185.32 -0.48 185.62 -0.95Q185.91 -1.41 185.91 -2.15L185.91 -2.34Q185.91 -3.08 185.61 -3.55Q185.31 -4.02 184.77 -4.24Q184.23 -4.46 183.44 -4.46L180.73 -4.46L180.73 -6.93L177.37 -6.93L177.37 -5.87L179.42 -5.87ZM183.19 -1.03L180.73 -1.03L180.73 -3.42L183.18 -3.42Q183.9 -3.42 184.23 -3.16Q184.56 -2.9 184.56 -2.34L184.56 -2.15Q184.56 -1.59 184.22 -1.31Q183.88 -1.03 183.19 -1.03ZM188.04 -6.93Q188.02 -5.46 187.98 -4.45Q187.94 -3.44 187.86 -2.78Q187.77 -2.12 187.64 -1.76Q187.51 -1.4 187.31 -1.25Q187.11 -1.11 186.85 -1.11L186.71 -1.11L186.71 0.03L186.83 0.03Q187.41 0.03 187.84 -0.16Q188.26 -0.35 188.52 -0.76Q188.79 -1.16 188.95 -1.84Q189.1 -2.51 189.17 -3.51Q189.24 -4.5 189.27 -5.87L192.3 -5.87L192.3 0L193.62 0L193.62 -6.93ZM198.71 0.12L198.93 0.12Q199.96 0.12 200.76 -0.24Q201.56 -0.6 202.03 -1.32Q202.49 -2.05 202.49 -3.16L202.49 -3.77Q202.49 -4.86 202.03 -5.6Q201.56 -6.33 200.76 -6.7Q199.96 -7.07 198.93 -7.07L198.71 -7.07Q197.95 -7.07 197.3 -6.86Q196.65 -6.65 196.17 -6.24Q195.69 -5.83 195.42 -5.22Q195.15 -4.61 195.15 -3.77L195.15 -3.16Q195.15 -2.33 195.42 -1.71Q195.69 -1.09 196.17 -0.69Q196.65 -0.28 197.3 -0.08Q197.95 0.12 198.71 0.12ZM201.16 -3.14Q201.16 -2.45 200.91 -1.97Q200.65 -1.48 200.14 -1.21Q199.64 -0.94 198.93 -0.94L198.71 -0.94Q198.02 -0.94 197.51 -1.21Q197.01 -1.48 196.74 -1.97Q196.47 -2.45 196.47 -3.14L196.47 -3.8Q196.47 -4.47 196.74 -4.96Q197.02 -5.44 197.52 -5.71Q198.02 -5.99 198.71 -5.99L198.93 -5.99Q199.64 -5.99 200.14 -5.71Q200.64 -5.44 200.9 -4.96Q201.16 -4.47 201.16 -3.8ZM204.01 -6.93L204.01 0L205.32 0L205.32 -2.99L209.38 -2.99L209.38 0L210.73 0L210.73 -6.93L209.38 -6.93L209.38 -4.03L205.32 -4.03L205.32 -6.93ZM215.48 -6.93L215.48 0L216.8 0L216.8 -2.99L217.27 -2.99L220.44 0L222.17 0L218.6 -3.45L218.6 -3.85L221.97 -6.93L220.44 -6.93L217.27 -4.06L216.8 -4.06L216.8 -6.93ZM225.37 0.29L224.02 3.33L225.3 3.33L229.72 -6.93L228.48 -6.93L226.28 -1.88L225.82 -1.88L223.51 -6.93L222.1 -6.93ZM230.76 -6.93L230.76 0L232.08 0L232.08 -2.99L236.14 -2.99L236.14 0L237.48 0L237.48 -6.93L236.14 -6.93L236.14 -4.03L232.08 -4.03L232.08 -6.93ZM244.93 -2.22Q244.77 -1.62 244.24 -1.26Q243.71 -0.9 242.74 -0.9L242.52 -0.9Q241.85 -0.9 241.35 -1.16Q240.85 -1.43 240.58 -1.89Q240.3 -2.36 240.3 -3.09L240.3 -3.1L246.24 -3.1L246.24 -3.77Q246.24 -4.89 245.77 -5.61Q245.3 -6.33 244.5 -6.7Q243.69 -7.07 242.74 -7.07L242.52 -7.07Q241.52 -7.07 240.73 -6.7Q239.94 -6.33 239.47 -5.61Q239 -4.89 239 -3.77L239 -3.16Q239 -2.05 239.47 -1.32Q239.94 -0.58 240.73 -0.23Q241.52 0.12 242.52 0.12L242.74 0.12Q243.72 0.12 244.46 -0.16Q245.19 -0.44 245.62 -0.97Q246.05 -1.5 246.16 -2.22ZM242.72 -6.03Q243.33 -6.03 243.83 -5.8Q244.33 -5.58 244.62 -5.15Q244.91 -4.71 244.95 -4.1L244.95 -4.1L240.31 -4.1L240.31 -4.1Q240.34 -4.72 240.62 -5.15Q240.89 -5.58 241.37 -5.8Q241.85 -6.03 242.5 -6.03ZM247 -1.05L247 1.8L248.25 1.8L248.25 0L254.26 0L254.26 1.8L255.51 1.8L255.51 -1.05L254.43 -1.05L254.43 -6.93L248.57 -6.93Q248.57 -5.71 248.54 -4.79Q248.51 -3.88 248.44 -3.21Q248.37 -2.55 248.26 -2.04Q248.15 -1.52 247.94 -1.05ZM253.11 -5.87L253.11 -1.05L249.2 -1.05Q249.33 -1.47 249.44 -1.9Q249.55 -2.34 249.62 -2.89Q249.69 -3.44 249.73 -4.16Q249.77 -4.89 249.79 -5.87ZM256.59 -9.28L257.08 -2.42L258 -2.42L258.47 -9.28ZM258.37 -0.68L258.37 -0.72Q258.37 -1.05 258.13 -1.28Q257.89 -1.51 257.54 -1.51L257.51 -1.51Q257.18 -1.51 256.94 -1.28Q256.7 -1.05 256.7 -0.71L256.7 -0.68Q256.7 -0.32 256.94 -0.1Q257.18 0.12 257.51 0.12L257.54 0.12Q257.89 0.12 258.13 -0.1Q258.37 -0.33 258.37 -0.68Z"/></svg>