<svg xmlns="http://www.w3.org/2000/svg" width="168" height="28" fill="none" viewBox="0 0 168 28"><defs><linearGradient id="a" x1="0" x2="149" y1="11.45" y2="11.45" gradientUnits="userSpaceOnUse"><stop stop-color="#82d5ff"/><stop offset=".29" stop-color="#8b8eff"/><stop offset=".55" stop-color="#7e3ffc"/><stop offset=".77" stop-color="#ab57ff"/><stop offset=".91" stop-color="#d35ef8"/><stop offset="1" stop-color="#ff66ef"/></linearGradient></defs><rect width="168" height="28" rx="14.00" fill="url(#a)"/><g transform="translate(10.50,7.50)"><svg width="147" height="13" viewBox="0 -9 147 13"><path fill="#fff" d="M6.88 -2.49Q6.88 -2.12 6.64 -1.83Q6.39 -1.55 5.91 -1.38Q5.42 -1.22 4.72 -1.22L4.49 -1.22Q3.73 -1.22 3.22 -1.4Q2.71 -1.59 2.44 -2Q2.17 -2.41 2.17 -3.05L2.17 -3.24L0.43 -3.24L0.43 -3.07Q0.43 -2.17 0.74 -1.57Q1.05 -0.96 1.59 -0.58Q2.12 -0.21 2.86 -0.05Q3.6 0.12 4.47 0.12L4.7 0.12Q5.86 0.12 6.74 -0.15Q7.62 -0.42 8.13 -0.98Q8.63 -1.53 8.63 -2.38L8.63 -2.53Q8.63 -2.99 8.48 -3.35Q8.33 -3.72 8.05 -3.99Q7.77 -4.26 7.38 -4.43L7.38 -4.78Q7.91 -5.08 8.15 -5.5Q8.4 -5.91 8.4 -6.42L8.4 -6.56Q8.4 -7.31 7.95 -7.83Q7.51 -8.36 6.66 -8.63Q5.82 -8.9 4.69 -8.9L4.47 -8.9Q3.31 -8.9 2.42 -8.59Q1.53 -8.28 1.03 -7.63Q0.52 -6.98 0.52 -5.97L0.52 -5.75L2.27 -5.75L2.27 -5.96Q2.27 -6.37 2.42 -6.67Q2.58 -6.97 2.87 -7.17Q3.16 -7.36 3.55 -7.45Q3.94 -7.55 4.45 -7.55L4.68 -7.55Q5.69 -7.55 6.18 -7.23Q6.67 -6.92 6.67 -6.41L6.67 -6.29Q6.67 -6.01 6.56 -5.8Q6.45 -5.59 6.25 -5.44Q6.05 -5.29 5.76 -5.23Q5.48 -5.17 5.11 -5.17L3.52 -5.17L3.52 -3.81L5.12 -3.81Q5.7 -3.81 6.09 -3.67Q6.48 -3.54 6.68 -3.27Q6.88 -3 6.88 -2.62ZM14.76 -0.85L14.76 0L16.43 0L16.43 -4.35Q16.43 -5.12 16.08 -5.66Q15.73 -6.2 15.02 -6.48Q14.32 -6.76 13.22 -6.76L12.99 -6.76Q11.96 -6.76 11.24 -6.48Q10.52 -6.2 10.16 -5.66Q9.81 -5.12 9.81 -4.39L9.81 -4.39L11.47 -4.39L11.47 -4.39Q11.47 -4.79 11.66 -5.04Q11.85 -5.29 12.19 -5.42Q12.54 -5.55 12.99 -5.55L13.2 -5.55Q13.7 -5.55 14.05 -5.42Q14.4 -5.29 14.58 -5.04Q14.76 -4.78 14.76 -4.35L14.76 -3.92L12.47 -3.92Q11.47 -3.92 10.85 -3.68Q10.22 -3.45 9.92 -2.99Q9.63 -2.53 9.63 -1.89Q9.63 -1.19 9.94 -0.75Q10.24 -0.3 10.79 -0.09Q11.34 0.12 12.04 0.12Q12.59 0.12 13.03 0.03Q13.47 -0.07 13.83 -0.29Q14.19 -0.51 14.45 -0.85ZM14.76 -2.66Q14.76 -2.31 14.64 -2.05Q14.51 -1.79 14.31 -1.62Q14.11 -1.44 13.83 -1.34Q13.56 -1.23 13.26 -1.18Q12.97 -1.13 12.68 -1.13Q11.97 -1.13 11.63 -1.36Q11.29 -1.6 11.29 -2Q11.29 -2.48 11.61 -2.69Q11.93 -2.9 12.65 -2.9L14.76 -2.9ZM17.9 -6.64L17.9 3.14L19.55 3.14L19.55 -0.88L19.84 -0.88Q20.08 -0.54 20.43 -0.31Q20.77 -0.09 21.18 0.01Q21.59 0.12 22.09 0.12L22.31 0.12Q22.94 0.12 23.48 -0.07Q24.01 -0.26 24.41 -0.64Q24.81 -1.01 25.02 -1.59Q25.23 -2.17 25.23 -2.97L25.23 -3.67Q25.23 -4.44 25.02 -5.03Q24.81 -5.62 24.41 -6Q24.01 -6.38 23.48 -6.57Q22.94 -6.76 22.31 -6.76L22.09 -6.76Q21.59 -6.76 21.19 -6.65Q20.78 -6.54 20.44 -6.32Q20.1 -6.1 19.84 -5.76L19.55 -5.76L19.55 -6.64ZM23.58 -2.96Q23.58 -2.4 23.35 -2Q23.11 -1.6 22.69 -1.4Q22.26 -1.21 21.68 -1.21L21.47 -1.21Q20.88 -1.21 20.46 -1.41Q20.03 -1.61 19.79 -2Q19.55 -2.38 19.55 -2.96L19.55 -3.68Q19.55 -4.24 19.79 -4.64Q20.03 -5.03 20.46 -5.23Q20.88 -5.44 21.47 -5.44L21.68 -5.44Q22.26 -5.44 22.69 -5.23Q23.11 -5.03 23.35 -4.64Q23.58 -4.24 23.58 -3.68ZM32.12 -2.17Q31.98 -1.65 31.51 -1.37Q31.05 -1.09 30.25 -1.09L30.03 -1.09Q29.44 -1.09 29.02 -1.29Q28.61 -1.49 28.37 -1.86Q28.14 -2.23 28.13 -2.83L28.13 -2.91L33.75 -2.91L33.75 -3.65Q33.75 -4.7 33.29 -5.38Q32.83 -6.07 32.04 -6.41Q31.24 -6.76 30.25 -6.76L30.03 -6.76Q29.02 -6.76 28.22 -6.41Q27.43 -6.07 26.97 -5.38Q26.51 -4.7 26.51 -3.65L26.51 -2.96Q26.51 -1.93 26.97 -1.23Q27.43 -0.54 28.22 -0.21Q29.02 0.12 30.03 0.12L30.25 0.12Q31.28 0.12 32.02 -0.16Q32.75 -0.45 33.16 -0.96Q33.58 -1.48 33.67 -2.17ZM30.25 -5.54Q30.76 -5.54 31.17 -5.37Q31.57 -5.2 31.82 -4.87Q32.07 -4.55 32.11 -4.06L32.11 -4.03L28.14 -4.03L28.14 -4.06Q28.2 -4.55 28.44 -4.87Q28.68 -5.2 29.06 -5.37Q29.45 -5.54 30.01 -5.54ZM35.15 -6.64L35.15 0L36.8 0L36.8 -5.31L40.54 -5.31L40.54 -6.64ZM47 -4.56L47 0L48.67 0L48.67 -6.64L46.53 -6.64L43.62 -2.08L43.27 -2.08L43.27 -6.64L41.62 -6.64L41.62 0L43.74 0L46.65 -4.56ZM50.07 -2.96Q50.07 -1.91 50.51 -1.23Q50.95 -0.55 51.74 -0.22Q52.52 0.12 53.57 0.12L53.79 0.12Q54.54 0.12 55.18 -0.06Q55.81 -0.24 56.28 -0.58Q56.74 -0.92 56.99 -1.4Q57.24 -1.89 57.24 -2.53L57.24 -2.58L55.6 -2.58L55.6 -2.53Q55.6 -2.14 55.39 -1.84Q55.17 -1.55 54.76 -1.38Q54.34 -1.21 53.79 -1.21L53.57 -1.21Q52.98 -1.21 52.58 -1.41Q52.17 -1.61 51.95 -2Q51.72 -2.38 51.72 -2.93L51.72 -3.65Q51.72 -4.22 51.95 -4.62Q52.17 -5.02 52.58 -5.23Q52.98 -5.44 53.57 -5.44L53.79 -5.44Q54.36 -5.44 54.76 -5.26Q55.16 -5.08 55.36 -4.77Q55.56 -4.45 55.56 -4.02L55.56 -3.96L57.21 -3.96L57.21 -4.02Q57.21 -4.93 56.78 -5.53Q56.35 -6.13 55.57 -6.45Q54.79 -6.76 53.79 -6.76L53.57 -6.76Q52.52 -6.76 51.74 -6.41Q50.95 -6.07 50.51 -5.37Q50.07 -4.68 50.07 -3.65ZM60.43 -5.31L60.43 0L62.11 0L62.11 -5.31L64.69 -5.31L64.69 -6.64L57.88 -6.64L57.88 -5.31ZM65.76 -6.64L65.76 3.14L67.41 3.14L67.41 -0.88L67.7 -0.88Q67.95 -0.54 68.29 -0.31Q68.63 -0.09 69.04 0.01Q69.45 0.12 69.95 0.12L70.17 0.12Q70.8 0.12 71.34 -0.07Q71.88 -0.26 72.28 -0.64Q72.67 -1.01 72.88 -1.59Q73.09 -2.17 73.09 -2.97L73.09 -3.67Q73.09 -4.44 72.88 -5.03Q72.67 -5.62 72.28 -6Q71.88 -6.38 71.34 -6.57Q70.8 -6.76 70.17 -6.76L69.95 -6.76Q69.45 -6.76 69.05 -6.65Q68.64 -6.54 68.3 -6.32Q67.96 -6.1 67.7 -5.76L67.41 -5.76L67.41 -6.64ZM71.44 -2.96Q71.44 -2.4 71.21 -2Q70.97 -1.6 70.55 -1.4Q70.12 -1.21 69.54 -1.21L69.33 -1.21Q68.74 -1.21 68.32 -1.41Q67.89 -1.61 67.65 -2Q67.41 -2.38 67.41 -2.96L67.41 -3.68Q67.41 -4.24 67.65 -4.64Q67.89 -5.03 68.32 -5.23Q68.74 -5.44 69.33 -5.44L69.54 -5.44Q70.12 -5.44 70.55 -5.23Q70.97 -5.03 71.21 -4.64Q71.44 -4.24 71.44 -3.68ZM79.89 -4.56L79.89 0L81.55 0L81.55 -6.64L79.42 -6.64L76.51 -2.08L76.16 -2.08L76.16 -6.64L74.51 -6.64L74.51 0L76.63 0L79.54 -4.56ZM83.09 -6.64L83.09 3.14L84.74 3.14L84.74 -0.88L85.03 -0.88Q85.28 -0.54 85.62 -0.31Q85.96 -0.09 86.37 0.01Q86.79 0.12 87.28 0.12L87.51 0.12Q88.14 0.12 88.67 -0.07Q89.21 -0.26 89.61 -0.64Q90.01 -1.01 90.22 -1.59Q90.43 -2.17 90.43 -2.97L90.43 -3.67Q90.43 -4.44 90.22 -5.03Q90.01 -5.62 89.61 -6Q89.21 -6.38 88.67 -6.57Q88.14 -6.76 87.51 -6.76L87.28 -6.76Q86.79 -6.76 86.38 -6.65Q85.97 -6.54 85.63 -6.32Q85.29 -6.1 85.03 -5.76L84.74 -5.76L84.74 -6.64ZM88.78 -2.96Q88.78 -2.4 88.54 -2Q88.31 -1.6 87.88 -1.4Q87.45 -1.21 86.88 -1.21L86.67 -1.21Q86.08 -1.21 85.65 -1.41Q85.23 -1.61 84.98 -2Q84.74 -2.38 84.74 -2.96L84.74 -3.68Q84.74 -4.24 84.98 -4.64Q85.23 -5.03 85.65 -5.23Q86.08 -5.44 86.67 -5.44L86.88 -5.44Q87.45 -5.44 87.88 -5.23Q88.31 -5.03 88.54 -4.64Q88.78 -4.24 88.78 -3.68ZM95.29 0.12L95.51 0.12Q96.54 0.12 97.34 -0.22Q98.14 -0.55 98.6 -1.24Q99.06 -1.94 99.06 -2.97L99.06 -3.67Q99.06 -4.69 98.6 -5.38Q98.14 -6.07 97.33 -6.41Q96.52 -6.76 95.51 -6.76L95.29 -6.76Q94.5 -6.76 93.84 -6.56Q93.18 -6.37 92.71 -5.98Q92.25 -5.59 91.98 -5.01Q91.71 -4.43 91.71 -3.67L91.71 -2.97Q91.71 -2.19 91.96 -1.61Q92.22 -1.03 92.7 -0.66Q93.18 -0.28 93.84 -0.08Q94.5 0.12 95.29 0.12ZM97.39 -2.96Q97.39 -2.41 97.18 -2.02Q96.96 -1.62 96.54 -1.41Q96.12 -1.21 95.51 -1.21L95.29 -1.21Q94.64 -1.21 94.22 -1.41Q93.81 -1.62 93.58 -2.02Q93.36 -2.41 93.36 -2.96L93.36 -3.68Q93.36 -4.22 93.59 -4.62Q93.82 -5.02 94.23 -5.23Q94.64 -5.44 95.29 -5.44L95.51 -5.44Q96.12 -5.44 96.54 -5.23Q96.96 -5.02 97.18 -4.62Q97.39 -4.22 97.39 -3.68ZM100.46 0L104.68 0Q105.56 0 106.09 -0.23Q106.62 -0.46 106.85 -0.86Q107.09 -1.27 107.09 -1.78Q107.09 -2.42 106.74 -2.78Q106.4 -3.13 105.9 -3.28L105.9 -3.59Q106.37 -3.76 106.65 -4.09Q106.93 -4.43 106.93 -4.99Q106.93 -5.49 106.7 -5.86Q106.46 -6.24 105.93 -6.44Q105.4 -6.64 104.58 -6.64L100.46 -6.64ZM104.3 -3.89L102.1 -3.89L102.1 -5.54L104.31 -5.54Q104.8 -5.54 105.02 -5.32Q105.24 -5.1 105.24 -4.73Q105.24 -4.35 105.03 -4.12Q104.82 -3.89 104.3 -3.89ZM104.31 -1.1L102.1 -1.1L102.1 -2.83L104.33 -2.83Q104.88 -2.83 105.14 -2.62Q105.4 -2.41 105.4 -1.98Q105.4 -1.52 105.14 -1.31Q104.88 -1.1 104.31 -1.1ZM113.17 -0.85L113.17 0L114.84 0L114.84 -4.35Q114.84 -5.12 114.49 -5.66Q114.14 -6.2 113.43 -6.48Q112.73 -6.76 111.63 -6.76L111.4 -6.76Q110.37 -6.76 109.65 -6.48Q108.93 -6.2 108.57 -5.66Q108.22 -5.12 108.22 -4.39L108.22 -4.39L109.88 -4.39L109.88 -4.39Q109.88 -4.79 110.07 -5.04Q110.26 -5.29 110.6 -5.42Q110.95 -5.55 111.4 -5.55L111.61 -5.55Q112.11 -5.55 112.46 -5.42Q112.81 -5.29 112.99 -5.04Q113.17 -4.78 113.17 -4.35L113.17 -3.92L110.88 -3.92Q109.88 -3.92 109.26 -3.68Q108.63 -3.45 108.33 -2.99Q108.04 -2.53 108.04 -1.89Q108.04 -1.19 108.35 -0.75Q108.65 -0.3 109.2 -0.09Q109.75 0.12 110.45 0.12Q111 0.12 111.44 0.03Q111.88 -0.07 112.24 -0.29Q112.6 -0.51 112.86 -0.85ZM113.17 -2.66Q113.17 -2.31 113.05 -2.05Q112.92 -1.79 112.72 -1.62Q112.52 -1.44 112.24 -1.34Q111.97 -1.23 111.67 -1.18Q111.38 -1.13 111.09 -1.13Q110.38 -1.13 110.04 -1.36Q109.7 -1.6 109.7 -2Q109.7 -2.48 110.02 -2.69Q110.34 -2.9 111.06 -2.9L113.17 -2.9ZM118.17 -5.31L118.17 0L119.85 0L119.85 -5.31L122.43 -5.31L122.43 -6.64L115.62 -6.64L115.62 -5.31ZM123.5 0L127.69 0Q128.44 0 128.98 -0.23Q129.52 -0.46 129.81 -0.92Q130.1 -1.39 130.1 -2.12L130.1 -2.36Q130.1 -3.09 129.81 -3.56Q129.51 -4.03 128.97 -4.26Q128.42 -4.48 127.69 -4.48L125.15 -4.48L125.15 -6.64L123.5 -6.64ZM127.31 -1.23L125.15 -1.23L125.15 -3.24L127.32 -3.24Q127.87 -3.24 128.16 -3.01Q128.44 -2.79 128.44 -2.33L128.44 -2.14Q128.44 -1.69 128.16 -1.46Q127.87 -1.23 127.31 -1.23ZM131.3 -2.96Q131.3 -1.91 131.74 -1.23Q132.18 -0.55 132.96 -0.22Q133.75 0.12 134.8 0.12L135.02 0.12Q135.77 0.12 136.4 -0.06Q137.04 -0.24 137.5 -0.58Q137.97 -0.92 138.22 -1.4Q138.47 -1.89 138.47 -2.53L138.47 -2.58L136.83 -2.58L136.83 -2.53Q136.83 -2.14 136.61 -1.84Q136.4 -1.55 135.98 -1.38Q135.57 -1.21 135.02 -1.21L134.8 -1.21Q134.21 -1.21 133.8 -1.41Q133.4 -1.61 133.17 -2Q132.95 -2.38 132.95 -2.93L132.95 -3.65Q132.95 -4.22 133.17 -4.62Q133.4 -5.02 133.8 -5.23Q134.21 -5.44 134.8 -5.44L135.02 -5.44Q135.58 -5.44 135.98 -5.26Q136.38 -5.08 136.59 -4.77Q136.79 -4.45 136.79 -4.02L136.79 -3.96L138.44 -3.96L138.44 -4.02Q138.44 -4.93 138.01 -5.53Q137.58 -6.13 136.8 -6.45Q136.02 -6.76 135.02 -6.76L134.8 -6.76Q133.75 -6.76 132.96 -6.41Q132.18 -6.07 131.74 -5.37Q131.3 -4.68 131.3 -3.65ZM139.33 0L141.23 0L142.89 -2.29L142.81 -2.28L144.61 -2.28L144.61 0L146.27 0L146.27 -6.64L142.26 -6.64Q141.48 -6.64 140.9 -6.41Q140.31 -6.17 139.99 -5.7Q139.67 -5.23 139.67 -4.55L139.67 -4.38Q139.67 -3.86 139.86 -3.5Q140.05 -3.13 140.4 -2.89Q140.76 -2.65 141.18 -2.54L141.18 -2.58ZM144.61 -5.44L144.61 -3.5L142.43 -3.5Q142.11 -3.5 141.86 -3.59Q141.61 -3.68 141.47 -3.88Q141.33 -4.09 141.33 -4.4L141.33 -4.53Q141.33 -4.83 141.49 -5.04Q141.64 -5.25 141.87 -5.34Q142.11 -5.44 142.43 -5.44Z"/></svg></g></svg>