<svg xmlns="http://www.w3.org/2000/svg" width="119" height="23" fill="none" viewBox="0 0 119 23"><path fill="#fff" d="M32.53 7.15h-.98v-2.7l-.43.07a11 11 0 0 1-1 .07h-.22q-.63 0-1.16-.1t-.91-.36-.59-.69-.2-1.11V.5h.99v1.86q0 .43.13.7.14.27.38.43.27.15.6.22.37.06.78.07h.25l.96-.06.42-.08V.5h1v5.83h.91v2.22h-.93zm4.07.1q-.56 0-1.02-.15t-.8-.43a2 2 0 0 1-.54-.74q-.2-.45-.2-1.03v-.46q0-.6.2-1.02a2.2 2.2 0 0 1 1.35-1.18q.46-.15 1.01-.15h.15q.74 0 1.31.27a2 2 0 0 1 .9.78q.34.52.34 1.3v.46q0 .78-.33 1.31a2 2 0 0 1-.9.79q-.6.24-1.32.24zm1.76-2.35v-.46q0-.5-.19-.85-.19-.36-.55-.54a2 2 0 0 0-.87-.19h-.15q-.51 0-.86.2-.36.17-.56.53-.2.35-.19.85v.46q0 .51.19.86t.55.54.87.18h.15q.52 0 .87-.18.36-.19.55-.54t.19-.86m5.94-1.38h-.26l-2.5 3.63h-1.15V2.2h.95v3.63h.26l2.5-3.63h1.14v4.96h-.94zM43.65 0h.73v.05q0 .73-.4 1.05-.38.3-1.1.31-.69 0-1.09-.31-.4-.32-.4-1.04V0h.73q0 .34.1.54.1.19.27.27.18.06.4.07.21 0 .38-.07a.6.6 0 0 0 .28-.27q.1-.2.1-.54m6.7 3.52h-.26l-2.5 3.63h-1.14V2.2h.94v3.63h.26l2.5-3.63h1.14v4.96h-.94zm4.37-1.33h.94v2.05H56l2.29-2.05h1.09l-2.42 2.2v.3l2.56 2.46h-1.23L56 5.01h-.33v2.14h-.94zm7.56 5.05q-.55 0-1.03-.14-.45-.15-.8-.43a2 2 0 0 1-.54-.74q-.19-.45-.19-1.03v-.46q0-.6.2-1.02a2.2 2.2 0 0 1 1.34-1.18q.47-.15 1.02-.15h.15q.73 0 1.3.27a2 2 0 0 1 .91.78q.34.52.34 1.3v.46q0 .78-.33 1.31a2 2 0 0 1-.91.79q-.58.24-1.31.24zm1.76-2.34v-.46q0-.5-.2-.85-.18-.36-.54-.54a2 2 0 0 0-.87-.19h-.15q-.51 0-.87.2-.36.17-.55.53-.2.35-.2.85v.46q0 .51.2.86.18.35.54.54.37.18.88.18h.15q.51 0 .87-.18.36-.19.55-.54.18-.35.19-.86m2.03-2.71h.94v.7h.21q.21-.3.47-.46.27-.18.6-.25.31-.1.65-.1h.15q.48 0 .88.16a1.9 1.9 0 0 1 1.19 1.18q.15.44.16 1.02v.46q0 .58-.16 1.03a2 2 0 0 1-1.19 1.17q-.4.14-.88.14h-.15q-.34 0-.66-.08a2 2 0 0 1-.6-.24 2 2 0 0 1-.46-.45h-.2v3.07h-.95zm4.31 2.71v-.46q0-.5-.2-.85-.18-.36-.54-.54a2 2 0 0 0-.86-.19h-.16q-.5 0-.85.18-.36.18-.56.54t-.2.86v.46q0 .51.2.86t.56.54q.37.18.85.18h.16q.5 0 .86-.18.35-.19.54-.54t.2-.86m5.94-1.38h-.26l-2.5 3.63H72.4V2.2h.95v3.63h.26l2.5-3.63h1.14v4.96h-.94zm2.15-1.33h.94v.7h.2q.21-.3.48-.46.27-.18.6-.25.3-.1.65-.1h.15q.46 0 .88.16a1.9 1.9 0 0 1 1.18 1.18q.18.44.17 1.02v.46q0 .58-.17 1.03a2 2 0 0 1-1.18 1.17q-.41.14-.88.14h-.15q-.35 0-.67-.08a2 2 0 0 1-.58-.24 2 2 0 0 1-.47-.45h-.2v3.07h-.95zm4.3 2.71v-.46q0-.5-.2-.85-.18-.36-.54-.54a2 2 0 0 0-.85-.19h-.16q-.5 0-.85.18-.36.18-.56.54t-.2.86v.46q0 .51.2.86t.56.54q.37.18.85.18h.16q.5 0 .85-.18.36-.19.55-.54t.2-.86m4.5 2.34q-.57 0-1.03-.14-.45-.15-.8-.43a2 2 0 0 1-.54-.74q-.2-.45-.19-1.03v-.46q0-.6.2-1.02a2.2 2.2 0 0 1 1.34-1.18q.47-.15 1.01-.15h.15q.75 0 1.31.27a2 2 0 0 1 .9.78q.35.52.35 1.3v.46q0 .78-.33 1.31a2 2 0 0 1-.92.79q-.58.24-1.3.24zm1.75-2.34v-.46q0-.5-.19-.85-.18-.36-.54-.54a2 2 0 0 0-.88-.19h-.15q-.5 0-.86.2-.36.17-.56.53-.18.35-.18.85v.46q0 .51.18.86.2.35.55.54.38.18.87.18h.15q.52 0 .88-.18.36-.19.54-.54.2-.35.2-.86M0 19.41h.67a5 5 0 0 0 .36-1.55q.06-.48.07-1.13.02-.66.02-1.53h4.2v4.21h.77v2.05h-.9v-1.3H.9v1.3H0zm4.37-3.46H2l-.04 1.24a10 10 0 0 1-.4 2.22h2.81zm6.17 3.59h-.22a2 2 0 0 1-1.1.65 4 4 0 0 1-.72.06 3 3 0 0 1-.94-.15q-.4-.16-.64-.5a1.5 1.5 0 0 1-.24-.85q0-.46.22-.78.23-.32.67-.5.46-.16 1.16-.16h1.81v-.4q0-.4-.16-.63a1 1 0 0 0-.45-.34 2 2 0 0 0-.68-.1H9.1q-.36 0-.65.1a.94.94 0 0 0-.65.93v.02h-.94v-.01q0-.56.25-.96t.75-.6 1.24-.22h.15q.74 0 1.23.22.5.2.75.61.26.4.26.98v3.26h-.95zm0-1.38v-.24H8.78q-.6 0-.87.2a.7.7 0 0 0-.28.59q0 .4.3.6t.85.2q.26 0 .5-.04a2 2 0 0 0 .89-.4 1.1 1.1 0 0 0 .37-.91m2.1-2.96h.94v.7h.21q.2-.3.47-.46.27-.18.6-.25.3-.09.65-.09h.15q.46 0 .88.15a1.9 1.9 0 0 1 1.18 1.18q.18.44.17 1.02v.46q0 .6-.17 1.03a2 2 0 0 1-1.18 1.18q-.41.13-.88.13h-.15q-.35 0-.67-.07a2 2 0 0 1-.58-.25 2 2 0 0 1-.47-.45h-.2v3.07h-.95zm4.3 2.71v-.46q0-.5-.2-.85-.18-.36-.54-.54a2 2 0 0 0-.85-.19h-.16q-.5 0-.85.18-.36.18-.56.54t-.2.86v.46q0 .52.2.86.2.36.56.54t.85.18h.16q.5 0 .85-.18.36-.18.55-.54.2-.35.2-.86m6.7-.44-2.92-3.96h1.06l2.24 3.03h.26l2.12-3.03h.98l-2.76 3.96v2.7h-.98zm5.91 2.79q-.55 0-1.02-.14-.45-.15-.8-.44a2 2 0 0 1-.54-.74q-.2-.45-.19-1.03v-.46q0-.6.19-1.02a2.2 2.2 0 0 1 1.35-1.18q.47-.15 1.01-.15h.15q.75 0 1.31.27a2 2 0 0 1 .9.78q.35.52.35 1.3v.46q0 .78-.33 1.31a2 2 0 0 1-.92.79q-.58.24-1.3.24zm1.76-2.35v-.46q0-.5-.19-.85-.18-.36-.54-.54a2 2 0 0 0-.88-.19h-.15q-.5 0-.86.2-.35.18-.56.53-.18.35-.19.85v.46q0 .51.2.86.18.36.54.54t.87.18h.15q.52 0 .88-.18t.54-.54.2-.86m2.04-2.71h.94v.65l-.04-.07h.25q.2-.31.55-.5.33-.18.83-.18.51 0 .86.2.36.2.55.61.2.42.2 1.06v.24h-.9v-.13q0-.55-.27-.86-.27-.32-.86-.32-.6 0-.9.32-.27.31-.27.86v3.09h-.94zm8.57 4.34h-.22a2 2 0 0 1-1.1.65 4 4 0 0 1-.72.06 3 3 0 0 1-.94-.15q-.4-.16-.64-.5a1.5 1.5 0 0 1-.24-.85q0-.46.22-.78t.67-.5q.46-.16 1.16-.16h1.81v-.4q0-.4-.16-.63a1 1 0 0 0-.45-.34 2 2 0 0 0-.68-.1h-.15q-.36 0-.65.1a.94.94 0 0 0-.65.93v.02h-.94v-.01q0-.56.25-.96.26-.39.75-.6.5-.22 1.24-.22h.15q.74 0 1.23.22.5.2.75.61.26.4.26.98v3.26h-.95zm0-1.38v-.24h-1.76q-.6 0-.87.2a.7.7 0 0 0-.28.59q0 .4.3.6t.85.2q.26 0 .5-.04a2 2 0 0 0 .89-.4 1.1 1.1 0 0 0 .37-.91m3.25 1.52q0 .24-.17.42a.6.6 0 0 1-.43.15.6.6 0 0 1-.43-.15.6.6 0 0 1-.17-.42v-.02q0-.25.17-.4a.6.6 0 0 1 .42-.18h.01q.27 0 .43.17.17.16.17.4zm1.1-1.11v-2.63h-.78v-.74h.79v-1.48h.94v1.48h2.5v.74h-2.5v2.63q0 .3.1.51.1.2.3.31t.48.11h.16q.27 0 .47-.1a.7.7 0 0 0 .3-.32q.1-.2.1-.51v-.47H50v.47q0 .58-.22.96-.22.36-.61.55-.39.18-.9.18h-.16q-.52 0-.94-.18t-.66-.55a2 2 0 0 1-.23-.96m4.68 2.13v-5.5h.95v5.53q0 .44-.11.78a1.4 1.4 0 0 1-.87.91q-.33.13-.78.13h-.34v-.83h.28q.3 0 .49-.11a.6.6 0 0 0 .28-.34q.1-.23.1-.57M52 13.67q0 .22-.16.36a.5.5 0 0 1-.37.13h-.07a.6.6 0 0 1-.38-.13.5.5 0 0 1-.15-.36v-.03q0-.21.15-.35.15-.15.38-.15h.07a.5.5 0 0 1 .37.15q.15.15.16.35zm7.43 4.38v-.07l.04.04h-2.3v-.72h2.26-.01v-.03q-.02-.7-.44-1.06a1.6 1.6 0 0 0-1.1-.36h-.17q-.75 0-1.13.37-.39.37-.39.94h-.94q0-.65.3-1.1t.85-.7 1.31-.26h.16q.74 0 1.3.26.55.25.88.78.3.52.31 1.31v.46q0 .8-.31 1.33-.32.52-.89.77-.55.24-1.29.24h-.16q-.75 0-1.32-.22a2 2 0 0 1-.87-.67q-.3-.45-.31-1.06v-.01h.94q0 .36.2.63.18.27.53.43a2 2 0 0 0 .83.16h.16q.72 0 1.13-.37t.43-1.09m2.9 2.12v-4.22h-1.48v-.75h2.42v1.77h1.94q.55 0 .94.17.4.15.6.5.21.32.21.85v.15q0 .52-.22.85-.2.35-.6.5-.37.18-.93.18zm2.69-.74q.5 0 .74-.19.25-.2.25-.6v-.14q0-.4-.25-.59-.23-.2-.74-.2h-1.75v1.72zm3.46-4.23h4.03v4.97h-.95v-4.22h-2.2q0 1-.05 1.7a8 8 0 0 1-.16 1.2q-.11.5-.3.79-.2.3-.5.42t-.71.12h-.09v-.8h.09q.2 0 .34-.1t.24-.37.15-.72q.06-.48.08-1.2.03-.74.03-1.8m7.67 5.06q-.55 0-1.02-.14-.45-.15-.8-.44a2 2 0 0 1-.54-.74q-.2-.45-.19-1.03v-.46q0-.6.19-1.02a2.2 2.2 0 0 1 1.35-1.18q.47-.15 1.01-.15h.15q.74 0 1.31.27a2 2 0 0 1 .9.78q.34.52.34 1.3v.46q0 .78-.32 1.31a2 2 0 0 1-.92.79q-.57.24-1.3.24zm1.76-2.35v-.46q0-.5-.19-.85-.18-.36-.54-.54a2 2 0 0 0-.88-.19h-.15q-.5 0-.86.2-.36.18-.56.53-.18.35-.19.85v.46q0 .51.2.86.18.36.54.54t.87.18h.15q.52 0 .88-.18.35-.18.54-.54.2-.35.2-.86m2.04-2.71h.94v2.08h2.92V15.2h.94v4.97h-.94v-2.14H80.9v2.14h-.94zm8.23 0h.95v2.06h.32l2.29-2.06h1.1l-2.43 2.2v.3l2.56 2.47h-1.23l-2.29-2.15h-.32v2.15h-.95zm7.08 5.17L92.9 15.2h1.02l1.66 3.62h.32l1.57-3.62h.9l-3.17 7.35h-.9zm3.86-5.17h.95v2.08H103V15.2h.94v4.97H103v-2.14h-2.92v2.14h-.95zm10.17 3.38h.88q-.08.52-.38.9-.3.37-.84.58-.52.2-1.24.2h-.16q-.71 0-1.27-.25a2 2 0 0 1-.9-.78 2.4 2.4 0 0 1-.34-1.32v-.46q0-.78.33-1.3t.9-.78a3 3 0 0 1 1.28-.27h.16q.69 0 1.26.27.58.26.92.78t.34 1.3v.5h-4.26v.01q0 .51.2.86.18.34.55.52.35.18.83.18h.16q.7 0 1.08-.26t.5-.68m-1.58-2.74h-.16q-.46 0-.81.16-.34.15-.54.47-.18.3-.23.76h3.33q-.02-.45-.24-.76a1.2 1.2 0 0 0-.56-.47q-.36-.16-.79-.16m3.07 3.57h.66a5 5 0 0 0 .37-1.55q.04-.48.07-1.13l.02-1.53h4.19v4.21h.77v2.05h-.89v-1.3h-4.3v1.3h-.9zm4.36-3.46h-2.37q0 .7-.04 1.24a10 10 0 0 1-.39 2.22h2.8zm2.5-2.44H119l-.35 4.92h-.64zm1.28 6.17q0 .24-.18.42a.6.6 0 0 1-.41.15h-.02a.6.6 0 0 1-.41-.15.5.5 0 0 1-.17-.42v-.02q0-.25.17-.4a.6.6 0 0 1 .41-.18h.02q.24 0 .41.17.18.16.18.4z"/></svg>