<svg xmlns="http://www.w3.org/2000/svg" width="234" height="68" fill="none" viewBox="1 -15 234 68"><path fill="#fff" d="M12.88 -5.25L12.88 0L17.01 0L17.01 -5.25L24.1 -13.17L19.68 -13.17L15.43 -8.43L14.71 -8.43L10.09 -13.17L5.28 -13.17ZM29.62 0.2L30.21 0.2Q32.43 0.2 34.09 -0.37Q35.75 -0.94 36.68 -2.09Q37.6 -3.24 37.6 -5.01L37.6 -5.21Q37.6 -6.94 36.68 -8.1Q35.75 -9.26 34.09 -9.83Q32.43 -10.41 30.21 -10.41L29.62 -10.41Q27.95 -10.41 26.59 -10.09Q25.22 -9.77 24.25 -9.11Q23.28 -8.45 22.75 -7.48Q22.23 -6.5 22.23 -5.21L22.23 -5.01Q22.23 -3.69 22.75 -2.71Q23.28 -1.73 24.25 -1.09Q25.22 -0.45 26.59 -0.13Q27.95 0.2 29.62 0.2ZM33.57 -5.01Q33.57 -4.4 33.27 -3.91Q32.96 -3.42 32.23 -3.12Q31.49 -2.83 30.21 -2.83L29.62 -2.83Q28.34 -2.83 27.61 -3.12Q26.87 -3.42 26.57 -3.91Q26.26 -4.4 26.26 -5.01L26.26 -5.21Q26.26 -5.82 26.57 -6.31Q26.87 -6.8 27.61 -7.09Q28.34 -7.39 29.62 -7.39L30.21 -7.39Q31.49 -7.39 32.23 -7.09Q32.96 -6.8 33.27 -6.31Q33.57 -5.82 33.57 -5.21ZM39.56 -10.22L39.56 0L43.59 0L43.59 -5.74Q43.59 -6.58 44.23 -6.97Q44.87 -7.35 46.15 -7.35Q47.42 -7.35 48.06 -6.97Q48.7 -6.58 48.7 -5.74L48.7 -5.38L52.42 -5.38L52.42 -5.74Q52.42 -7.39 51.92 -8.42Q51.43 -9.45 50.41 -9.93Q49.39 -10.41 47.82 -10.41Q46.38 -10.41 45.5 -10.02Q44.61 -9.63 44.05 -8.96L43.55 -8.96L43.59 -8.92L43.59 -10.22ZM63.77 -1.49L63.77 0L67.8 0L67.8 -6.6Q67.8 -7.76 67.12 -8.62Q66.45 -9.47 64.96 -9.94Q63.48 -10.41 61.08 -10.41L60.49 -10.41Q58.11 -10.41 56.61 -9.96Q55.11 -9.51 54.4 -8.69Q53.69 -7.86 53.69 -6.74L53.69 -6.72L57.72 -6.72L57.72 -6.74Q57.72 -7.11 58.01 -7.36Q58.29 -7.6 58.9 -7.74Q59.51 -7.88 60.47 -7.88L61.02 -7.88Q62 -7.88 62.6 -7.73Q63.2 -7.58 63.49 -7.3Q63.77 -7.01 63.77 -6.6L63.77 -6.33L58.82 -6.33Q57.01 -6.33 55.83 -5.96Q54.66 -5.6 54.08 -4.85Q53.5 -4.11 53.5 -2.97Q53.5 -1.93 54.08 -1.23Q54.66 -0.53 55.71 -0.17Q56.76 0.2 58.17 0.2Q59.49 0.2 60.42 0Q61.36 -0.2 62.01 -0.57Q62.67 -0.94 63.16 -1.49ZM63.77 -4.03Q63.77 -3.69 63.56 -3.45Q63.34 -3.2 62.97 -3.02Q62.59 -2.83 62.12 -2.72Q61.65 -2.61 61.12 -2.55Q60.59 -2.5 60.08 -2.5Q58.63 -2.5 58.12 -2.74Q57.62 -2.99 57.62 -3.36Q57.62 -3.81 58.07 -3.99Q58.51 -4.17 59.57 -4.17L63.77 -4.17ZM73.7 -1.67L73.7 -1.71Q73.7 -2.52 73.14 -3.05Q72.58 -3.58 71.81 -3.58L71.63 -3.58Q70.87 -3.58 70.32 -3.05Q69.77 -2.52 69.77 -1.71L69.77 -1.67Q69.77 -0.83 70.32 -0.31Q70.87 0.2 71.63 0.2L71.81 0.2Q72.58 0.2 73.14 -0.31Q73.7 -0.83 73.7 -1.67ZM75.68 -4.36Q75.68 -2.83 76.4 -1.82Q77.12 -0.81 78.41 -0.3Q79.71 0.2 81.46 0.2L82.05 0.2Q83.64 0.2 84.76 -0.3Q85.88 -0.81 86.47 -1.82Q87.06 -2.83 87.06 -4.36L87.06 -4.54L83.52 -4.54L83.52 -4.36Q83.52 -3.89 83.37 -3.52Q83.23 -3.14 82.88 -2.93Q82.54 -2.71 81.93 -2.71L81.34 -2.71Q80.73 -2.71 80.38 -2.93Q80.02 -3.14 79.87 -3.52Q79.71 -3.89 79.71 -4.36L79.71 -7.47L86.47 -7.47L86.47 -10.22L79.71 -10.22L79.71 -12.77L75.68 -12.77L75.68 -10.22L73.7 -10.22L73.7 -7.47L75.68 -7.47ZM88.73 0.02Q88.73 0.39 88.59 0.69Q88.45 0.98 88.07 1.16Q87.69 1.34 86.94 1.34L84.74 1.34L84.74 4.72L87.43 4.72Q88.98 4.72 90.03 4.37Q91.07 4.03 91.66 3.44Q92.25 2.85 92.5 2.09Q92.76 1.34 92.76 0.51L92.76 -10.22L88.73 -10.22ZM92.91 -13.07L92.91 -13.11Q92.91 -13.83 92.32 -14.31Q91.74 -14.78 90.93 -14.78L90.56 -14.78Q89.73 -14.78 89.16 -14.31Q88.59 -13.83 88.59 -13.11L88.59 -13.07Q88.59 -12.28 89.16 -11.83Q89.73 -11.38 90.56 -11.38L90.93 -11.38Q91.74 -11.38 92.32 -11.83Q92.91 -12.28 92.91 -13.07ZM100.32 -3.42L120.99 -3.42L120.99 -6.66L100.32 -6.66ZM140.41 0L140.41 2.55L144.14 2.55L144.14 -2.95L142.18 -2.95L142.18 -10.22L138.15 -10.22L138.15 -6.19Q137.66 -6.13 137.07 -6.1Q136.48 -6.07 135.75 -6.07Q134.81 -6.07 134.14 -6.16Q133.47 -6.25 133.07 -6.46Q132.67 -6.68 132.48 -7.07Q132.29 -7.47 132.29 -8.06L132.29 -10.22L128.26 -10.22L128.26 -7.17Q128.26 -6.03 128.76 -5.27Q129.25 -4.5 130.13 -4.04Q131.02 -3.58 132.19 -3.38Q133.37 -3.18 134.75 -3.18Q135.51 -3.18 136.45 -3.22Q137.38 -3.26 138.15 -3.32L138.15 0ZM152.41 0.2L153 0.2Q155.22 0.2 156.88 -0.37Q158.54 -0.94 159.47 -2.09Q160.39 -3.24 160.39 -5.01L160.39 -5.21Q160.39 -6.94 159.47 -8.1Q158.54 -9.26 156.88 -9.83Q155.22 -10.41 153 -10.41L152.41 -10.41Q150.74 -10.41 149.38 -10.09Q148.01 -9.77 147.04 -9.11Q146.07 -8.45 145.55 -7.48Q145.03 -6.5 145.03 -5.21L145.03 -5.01Q145.03 -3.69 145.55 -2.71Q146.07 -1.73 147.04 -1.09Q148.01 -0.45 149.38 -0.13Q150.74 0.2 152.41 0.2ZM156.36 -5.01Q156.36 -4.4 156.06 -3.91Q155.75 -3.42 155.02 -3.12Q154.28 -2.83 153 -2.83L152.41 -2.83Q151.14 -2.83 150.4 -3.12Q149.66 -3.42 149.36 -3.91Q149.05 -4.4 149.05 -5.01L149.05 -5.21Q149.05 -5.82 149.36 -6.31Q149.66 -6.8 150.4 -7.09Q151.14 -7.39 152.41 -7.39L153 -7.39Q154.28 -7.39 155.02 -7.09Q155.75 -6.8 156.06 -6.31Q156.36 -5.82 156.36 -5.21ZM173.34 -6.78L173.34 0L177.37 0L177.37 -10.22L171.57 -10.22L167.05 -3.44L166.38 -3.44L166.38 -10.22L162.36 -10.22L162.36 0L168.15 0L172.67 -6.78ZM171.38 -14.54Q171.38 -14.05 171.21 -13.77Q171.04 -13.5 170.75 -13.39Q170.45 -13.28 170.06 -13.28Q169.67 -13.28 169.37 -13.39Q169.08 -13.5 168.91 -13.77Q168.74 -14.05 168.74 -14.54L165.93 -14.54L165.93 -14.44Q165.93 -12.87 166.96 -12.11Q168 -11.36 170.06 -11.36Q172.14 -11.36 173.16 -12.11Q174.19 -12.87 174.19 -14.46L174.19 -14.54ZM192.5 0L192.5 2.55L196.23 2.55L196.23 -2.95L192.66 -2.95L189.89 -5.31L195.6 -10.22L191.05 -10.22L187.96 -7.66L187.08 -7.66L184.03 -10.22L178.88 -10.22L184.72 -5.34L178.84 0L183.52 0L186.76 -2.91L187.67 -2.91L191.18 0ZM204.31 0.2L204.9 0.2Q207.12 0.2 208.78 -0.37Q210.44 -0.94 211.36 -2.09Q212.29 -3.24 212.29 -5.01L212.29 -5.21Q212.29 -6.94 211.36 -8.1Q210.44 -9.26 208.78 -9.83Q207.12 -10.41 204.9 -10.41L204.31 -10.41Q202.64 -10.41 201.27 -10.09Q199.91 -9.77 198.93 -9.11Q197.96 -8.45 197.44 -7.48Q196.92 -6.5 196.92 -5.21L196.92 -5.01Q196.92 -3.69 197.44 -2.71Q197.96 -1.73 198.93 -1.09Q199.91 -0.45 201.27 -0.13Q202.64 0.2 204.31 0.2ZM208.26 -5.01Q208.26 -4.4 207.95 -3.91Q207.65 -3.42 206.91 -3.12Q206.18 -2.83 204.9 -2.83L204.31 -2.83Q203.03 -2.83 202.29 -3.12Q201.56 -3.42 201.25 -3.91Q200.95 -4.4 200.95 -5.01L200.95 -5.21Q200.95 -5.82 201.25 -6.31Q201.56 -6.8 202.29 -7.09Q203.03 -7.39 204.31 -7.39L204.9 -7.39Q206.18 -7.39 206.91 -7.09Q207.65 -6.8 207.95 -6.31Q208.26 -5.82 208.26 -5.21ZM225.24 -6.78L225.24 0L229.26 0L229.26 -10.22L223.47 -10.22L218.95 -3.44L218.28 -3.44L218.28 -10.22L214.25 -10.22L214.25 0L220.05 0L224.57 -6.78ZM1.08 14.54L1.08 24.76L5.11 24.76L5.11 20.99L6.15 20.99L10.51 24.76L15.92 24.76L10.2 19.79L10.2 18.96L15.52 14.54L10.41 14.54L6.15 18.16L5.11 18.16L5.11 14.54ZM23.21 24.96L23.8 24.96Q26.02 24.96 27.68 24.39Q29.34 23.82 30.26 22.67Q31.18 21.52 31.18 19.75L31.18 19.55Q31.18 17.82 30.26 16.66Q29.34 15.5 27.68 14.92Q26.02 14.34 23.8 14.34L23.21 14.34Q21.54 14.34 20.17 14.67Q18.8 14.99 17.83 15.65Q16.86 16.31 16.34 17.28Q15.82 18.25 15.82 19.55L15.82 19.75Q15.82 21.06 16.34 22.05Q16.86 23.03 17.83 23.67Q18.8 24.31 20.17 24.63Q21.54 24.96 23.21 24.96ZM27.16 19.75Q27.16 20.36 26.85 20.85Q26.55 21.34 25.81 21.63Q25.07 21.93 23.8 21.93L23.21 21.93Q21.93 21.93 21.19 21.63Q20.46 21.34 20.15 20.85Q19.85 20.36 19.85 19.75L19.85 19.55Q19.85 18.94 20.15 18.45Q20.46 17.96 21.19 17.67Q21.93 17.37 23.21 17.37L23.8 17.37Q25.07 17.37 25.81 17.67Q26.55 17.96 26.85 18.45Q27.16 18.94 27.16 19.55ZM33.15 14.54L33.15 29.47L37.18 29.47L37.18 23.3L37.67 23.3Q38.08 23.8 38.65 24.17Q39.22 24.54 40.03 24.75Q40.83 24.96 41.93 24.96L42.52 24.96Q43.7 24.96 44.78 24.68Q45.86 24.41 46.7 23.8Q47.53 23.19 48.01 22.19Q48.5 21.2 48.5 19.75L48.5 19.55Q48.5 18.14 48.01 17.13Q47.53 16.13 46.7 15.52Q45.86 14.91 44.78 14.63Q43.7 14.34 42.52 14.34L41.93 14.34Q40.87 14.34 40.09 14.55Q39.3 14.76 38.71 15.12Q38.12 15.48 37.67 15.98L37.18 15.98L37.18 14.54ZM44.47 19.75Q44.47 20.53 44.04 21.02Q43.6 21.5 42.85 21.71Q42.09 21.93 41.11 21.93L40.54 21.93Q39.57 21.93 38.81 21.71Q38.04 21.5 37.61 21.02Q37.18 20.53 37.18 19.75L37.18 19.55Q37.18 18.79 37.61 18.3Q38.04 17.82 38.81 17.6Q39.57 17.37 40.54 17.37L41.11 17.37Q42.09 17.37 42.85 17.6Q43.6 17.82 44.04 18.3Q44.47 18.79 44.47 19.55ZM61.68 12.77L61.68 10.61L54.51 10.61L54.51 12.77ZM61.44 17.98L61.44 24.76L65.47 24.76L65.47 14.54L59.68 14.54L55.16 21.32L54.49 21.32L54.49 14.54L50.46 14.54L50.46 24.76L56.26 24.76L60.78 17.98ZM72.06 21.81L72.06 27.31L75.79 27.31L75.79 24.76L86.46 24.76L86.46 27.31L90.19 27.31L90.19 21.81L88.23 21.81L88.23 14.54L74.75 14.54Q74.75 15.99 74.72 17.07Q74.69 18.14 74.62 18.96Q74.55 19.79 74.41 20.48Q74.28 21.16 74.06 21.81ZM84.2 17.49L84.2 21.81L77.75 21.81Q77.89 21.34 77.99 20.89Q78.09 20.44 78.16 19.93Q78.23 19.43 78.28 18.83Q78.34 18.24 78.36 17.49ZM101.45 23.27L101.45 24.76L105.48 24.76L105.48 18.16Q105.48 17 104.8 16.14Q104.12 15.29 102.64 14.82Q101.16 14.34 98.76 14.34L98.17 14.34Q95.79 14.34 94.29 14.8Q92.79 15.25 92.08 16.07Q91.37 16.9 91.37 18.02L91.37 18.04L95.4 18.04L95.4 18.02Q95.4 17.65 95.68 17.4Q95.97 17.15 96.58 17.02Q97.19 16.88 98.15 16.88L98.7 16.88Q99.68 16.88 100.28 17.03Q100.88 17.17 101.17 17.46Q101.45 17.74 101.45 18.16L101.45 18.43L96.5 18.43Q94.69 18.43 93.51 18.8Q92.33 19.16 91.75 19.91Q91.18 20.65 91.18 21.79Q91.18 22.83 91.75 23.53Q92.33 24.23 93.39 24.59Q94.44 24.96 95.85 24.96Q97.17 24.96 98.1 24.76Q99.04 24.56 99.69 24.19Q100.35 23.82 100.84 23.27ZM101.45 20.73Q101.45 21.06 101.24 21.31Q101.02 21.56 100.65 21.74Q100.27 21.93 99.8 22.04Q99.33 22.15 98.8 22.2Q98.27 22.26 97.76 22.26Q96.3 22.26 95.8 22.02Q95.3 21.77 95.3 21.4Q95.3 20.95 95.74 20.77Q96.19 20.59 97.25 20.59L101.45 20.59ZM107.54 14.54L107.54 29.47L111.57 29.47L111.57 23.3L112.06 23.3Q112.48 23.8 113.05 24.17Q113.62 24.54 114.42 24.75Q115.23 24.96 116.33 24.96L116.92 24.96Q118.1 24.96 119.18 24.68Q120.26 24.41 121.09 23.8Q121.93 23.19 122.41 22.19Q122.89 21.2 122.89 19.75L122.89 19.55Q122.89 18.14 122.41 17.13Q121.93 16.13 121.09 15.52Q120.26 14.91 119.18 14.63Q118.1 14.34 116.92 14.34L116.33 14.34Q115.27 14.34 114.48 14.55Q113.69 14.76 113.1 15.12Q112.51 15.48 112.06 15.98L111.57 15.98L111.57 14.54ZM118.86 19.75Q118.86 20.53 118.43 21.02Q118 21.5 117.24 21.71Q116.48 21.93 115.5 21.93L114.93 21.93Q113.97 21.93 113.2 21.71Q112.44 21.5 112 21.02Q111.57 20.53 111.57 19.75L111.57 19.55Q111.57 18.79 112 18.3Q112.44 17.82 113.2 17.6Q113.97 17.37 114.93 17.37L115.5 17.37Q116.48 17.37 117.24 17.6Q118 17.82 118.43 18.3Q118.86 18.79 118.86 19.55ZM133.89 17.49L133.89 24.76L137.92 24.76L137.92 17.49L142.54 17.49L142.54 14.54L129.28 14.54L129.28 17.49ZM153.9 23.27L153.9 24.76L157.93 24.76L157.93 18.16Q157.93 17 157.25 16.14Q156.57 15.29 155.09 14.82Q153.6 14.34 151.21 14.34L150.62 14.34Q148.24 14.34 146.73 14.8Q145.23 15.25 144.52 16.07Q143.82 16.9 143.82 18.02L143.82 18.04L147.85 18.04L147.85 18.02Q147.85 17.65 148.13 17.4Q148.42 17.15 149.02 17.02Q149.63 16.88 150.6 16.88L151.15 16.88Q152.13 16.88 152.73 17.03Q153.33 17.17 153.61 17.46Q153.9 17.74 153.9 18.16L153.9 18.43L148.95 18.43Q147.14 18.43 145.96 18.8Q144.78 19.16 144.2 19.91Q143.62 20.65 143.62 21.79Q143.62 22.83 144.2 23.53Q144.78 24.23 145.83 24.59Q146.88 24.96 148.3 24.96Q149.61 24.96 150.55 24.76Q151.48 24.56 152.14 24.19Q152.8 23.82 153.29 23.27ZM153.9 20.73Q153.9 21.06 153.68 21.31Q153.47 21.56 153.09 21.74Q152.72 21.93 152.25 22.04Q151.78 22.15 151.24 22.2Q150.71 22.26 150.2 22.26Q148.75 22.26 148.25 22.02Q147.75 21.77 147.75 21.4Q147.75 20.95 148.19 20.77Q148.63 20.59 149.69 20.59L153.9 20.59ZM174.9 16.88L174.9 24.76L178.93 24.76L178.93 14.54L172.72 14.54L169.66 20.3L170.44 19.57L168.44 19.57L169.79 20.24L166.63 14.54L159.99 14.54L159.99 24.76L163.82 24.76L163.82 17.1L163.23 17.39L165.57 17.39L164.17 17.1L167.34 22.79L171.48 22.79L174.55 17.04L173.13 17.39L175.49 17.39ZM188.28 24.96L188.87 24.96Q191.09 24.96 192.75 24.39Q194.42 23.82 195.34 22.67Q196.26 21.52 196.26 19.75L196.26 19.55Q196.26 17.82 195.34 16.66Q194.42 15.5 192.75 14.92Q191.09 14.34 188.87 14.34L188.28 14.34Q186.61 14.34 185.25 14.67Q183.88 14.99 182.91 15.65Q181.94 16.31 181.42 17.28Q180.9 18.25 180.9 19.55L180.9 19.75Q180.9 21.06 181.42 22.05Q181.94 23.03 182.91 23.67Q183.88 24.31 185.25 24.63Q186.61 24.96 188.28 24.96ZM192.23 19.75Q192.23 20.36 191.93 20.85Q191.62 21.34 190.89 21.63Q190.15 21.93 188.87 21.93L188.28 21.93Q187.01 21.93 186.27 21.63Q185.53 21.34 185.23 20.85Q184.92 20.36 184.92 19.75L184.92 19.55Q184.92 18.94 185.23 18.45Q185.53 17.96 186.27 17.67Q187.01 17.37 188.28 17.37L188.87 17.37Q190.15 17.37 190.89 17.67Q191.62 17.96 191.93 18.45Q192.23 18.94 192.23 19.55ZM213.14 16.88L213.14 24.76L217.17 24.76L217.17 14.54L210.96 14.54L207.89 20.3L208.68 19.57L206.68 19.57L208.03 20.24L204.87 14.54L198.23 14.54L198.23 24.76L202.06 24.76L202.06 17.1L201.47 17.39L203.81 17.39L202.41 17.1L205.58 22.79L209.72 22.79L212.79 17.04L211.37 17.39L213.73 17.39ZM230.32 17.98L230.32 24.76L234.34 24.76L234.34 14.54L228.55 14.54L224.03 21.32L223.36 21.32L223.36 14.54L219.33 14.54L219.33 24.76L225.13 24.76L229.65 17.98ZM38.68 39.69L38.68 49.52L42.81 49.52L42.81 39.69L49.19 39.69L49.19 36.35L32.29 36.35L32.29 39.69ZM56.29 49.71L56.88 49.71Q59.1 49.71 60.76 49.14Q62.42 48.57 63.34 47.42Q64.26 46.28 64.26 44.51L64.26 44.31Q64.26 42.58 63.34 41.42Q62.42 40.26 60.76 39.68Q59.1 39.1 56.88 39.1L56.29 39.1Q54.62 39.1 53.25 39.43Q51.89 39.75 50.91 40.41Q49.94 41.07 49.42 42.04Q48.9 43.01 48.9 44.31L48.9 44.51Q48.9 45.82 49.42 46.81Q49.94 47.79 50.91 48.43Q51.89 49.07 53.25 49.39Q54.62 49.71 56.29 49.71ZM60.24 44.51Q60.24 45.12 59.93 45.61Q59.63 46.1 58.89 46.39Q58.15 46.69 56.88 46.69L56.29 46.69Q55.01 46.69 54.27 46.39Q53.54 46.1 53.23 45.61Q52.93 45.12 52.93 44.51L52.93 44.31Q52.93 43.7 53.23 43.21Q53.54 42.72 54.27 42.42Q55.01 42.13 56.29 42.13L56.88 42.13Q58.15 42.13 58.89 42.42Q59.63 42.72 59.93 43.21Q60.24 43.7 60.24 44.31ZM78.08 49.52L78.08 52.07L81.81 52.07L81.81 46.57L79.85 46.57L79.85 39.3L75.82 39.3L75.82 43.33Q75.33 43.39 74.74 43.42Q74.15 43.45 73.42 43.45Q72.48 43.45 71.81 43.36Q71.14 43.27 70.74 43.05Q70.34 42.84 70.15 42.44Q69.96 42.05 69.96 41.46L69.96 39.3L65.93 39.3L65.93 42.35Q65.93 43.49 66.43 44.25Q66.92 45.02 67.8 45.48Q68.69 45.94 69.86 46.14Q71.04 46.33 72.42 46.33Q73.19 46.33 74.12 46.29Q75.05 46.26 75.82 46.2L75.82 49.52ZM94.27 42.74L94.27 49.52L98.3 49.52L98.3 39.3L92.5 39.3L87.98 46.08L87.31 46.08L87.31 39.3L83.29 39.3L83.29 49.52L89.08 49.52L93.6 42.74ZM100.46 39.3L100.46 49.52L104.49 49.52L104.49 45.74L105.53 45.74L109.89 49.52L115.3 49.52L109.58 44.55L109.58 43.72L114.9 39.3L109.79 39.3L105.53 42.92L104.49 42.92L104.49 39.3ZM127.56 42.74L127.56 49.52L131.58 49.52L131.58 39.3L125.79 39.3L121.27 46.08L120.6 46.08L120.6 39.3L116.57 39.3L116.57 49.52L122.37 49.52L126.89 42.74ZM133.55 44.61Q133.55 46.37 134.46 47.5Q135.38 48.63 137.01 49.17Q138.64 49.71 140.82 49.71L141.41 49.71Q142.9 49.71 144.22 49.43Q145.54 49.14 146.53 48.58Q147.52 48.02 148.09 47.18Q148.66 46.33 148.66 45.19L148.66 45.19L144.63 45.19L144.63 45.19Q144.63 45.71 144.21 46.04Q143.79 46.37 143.06 46.53Q142.33 46.69 141.41 46.69L140.82 46.69Q139.78 46.69 139.05 46.44Q138.32 46.2 137.95 45.73Q137.58 45.27 137.58 44.61L137.58 44.41Q137.58 43.7 137.95 43.19Q138.32 42.68 139.05 42.4Q139.78 42.13 140.82 42.13L141.41 42.13Q142.33 42.13 143.04 42.31Q143.75 42.48 144.14 42.8Q144.53 43.11 144.53 43.52L144.53 43.52L148.56 43.52L148.56 43.52Q148.56 41.99 147.61 41.02Q146.66 40.05 145.03 39.57Q143.39 39.1 141.41 39.1L140.82 39.1Q138.64 39.1 137.01 39.69Q135.38 40.28 134.46 41.46Q133.55 42.64 133.55 44.41ZM154.16 42.25L154.16 49.52L158.19 49.52L158.19 42.25L162.81 42.25L162.81 39.3L149.54 39.3L149.54 42.25ZM171.08 49.71L171.67 49.71Q173.89 49.71 175.55 49.14Q177.21 48.57 178.14 47.42Q179.06 46.28 179.06 44.51L179.06 44.31Q179.06 42.58 178.14 41.42Q177.21 40.26 175.55 39.68Q173.89 39.1 171.67 39.1L171.08 39.1Q169.41 39.1 168.05 39.43Q166.68 39.75 165.71 40.41Q164.73 41.07 164.21 42.04Q163.69 43.01 163.69 44.31L163.69 44.51Q163.69 45.82 164.21 46.81Q164.73 47.79 165.71 48.43Q166.68 49.07 168.05 49.39Q169.41 49.71 171.08 49.71ZM175.03 44.51Q175.03 45.12 174.73 45.61Q174.42 46.1 173.68 46.39Q172.95 46.69 171.67 46.69L171.08 46.69Q169.8 46.69 169.07 46.39Q168.33 46.1 168.03 45.61Q167.72 45.12 167.72 44.51L167.72 44.31Q167.72 43.7 168.03 43.21Q168.33 42.72 169.07 42.42Q169.8 42.13 171.08 42.13L171.67 42.13Q172.95 42.13 173.68 42.42Q174.42 42.72 174.73 43.21Q175.03 43.7 175.03 44.31ZM181.02 39.3L181.02 49.52L185.05 49.52L185.05 45.74L191.54 45.74L191.54 49.52L195.56 49.52L195.56 39.3L191.54 39.3L191.54 42.92L185.05 42.92L185.05 39.3ZM197.23 36.35L198.81 44.9L201.36 44.9L202.93 36.35ZM202.05 47.85L202.05 47.81Q202.05 47 201.49 46.47Q200.93 45.94 200.16 45.94L199.99 45.94Q199.22 45.94 198.67 46.47Q198.12 47 198.12 47.81L198.12 47.85Q198.12 48.69 198.67 49.2Q199.22 49.71 199.99 49.71L200.16 49.71Q200.93 49.71 201.49 49.2Q202.05 48.69 202.05 47.85Z"/></svg>